<svg width="790" height="391" viewBox="0 0 790 391" fill="none" xmlns="http://www.w3.org/2000/svg">
<g clip-path="url(#clip0_68_592)">
<mask id="mask0_68_592" style="mask-type:alpha" maskUnits="userSpaceOnUse" x="7" y="7" width="69" height="71">
<path d="M34.6619 7.95113L49.811 25.9061C50.6426 26.8917 52.0109 27.2356 53.2096 26.7603L72.5296 19.1003C74.3138 18.3929 75.9733 20.3609 74.9748 22.0001L62.6291 42.2654C61.9608 43.3623 62.065 44.763 62.8882 45.7489L75.4948 60.848C76.7279 62.3248 75.3685 64.5207 73.4968 64.0755L50.8093 58.6798C49.5741 58.3861 48.2876 58.9017 47.5973 59.9674L36.9331 76.4303C35.8944 78.0339 33.4136 77.4073 33.2609 75.5028L31.4839 53.3432C31.3806 52.055 30.4639 50.9777 29.2088 50.6695L9.42158 45.8115C7.55095 45.3523 7.34695 42.7737 9.1221 42.026L30.57 32.9922C31.7439 32.4977 32.4776 31.3159 32.3999 30.0445L31.137 9.36277C31.0196 7.44062 33.42 6.4793 34.6619 7.95113Z" fill="#D9D9D9"/>
</mask>
<g mask="url(#mask0_68_592)">
<path d="M32.8883 25.7683C33.6087 34.7273 28.598 40.384 26.0026 42.0924C40.6435 41.2041 39.3475 24.0418 36.8694 15.5717L44.3442 19.4242L47.4418 20.5582L30.4033 0.723633C30.9315 5.33897 32.1678 16.8094 32.8883 25.7683Z" fill="black"/>
<path d="M57.103 25.3612C48.7063 28.567 41.8707 25.3451 39.5025 23.3335C44.4641 37.1367 60.5729 31.0763 68.0072 26.3207L66.4073 34.5763L66.1881 37.8677L80.4438 15.9475C76.1622 17.7497 65.4998 22.1555 57.103 25.3612Z" fill="black"/>
<path d="M64.3534 48.1184C58.5708 41.2378 59.3722 33.7236 60.4958 30.8266C49.0837 40.0412 60.0927 53.271 67.0237 58.734L58.7 59.9306L55.5189 60.8031L80.9023 67.0801C77.7955 63.6265 70.136 54.9991 64.3534 48.1184Z" fill="black"/>
<path d="M45.0765 62.9527C49.9109 55.3757 57.3205 53.8913 60.421 54.0962C48.213 45.9654 38.8849 60.4296 35.7469 68.678L32.1138 61.0941L30.3291 58.3199L31.9375 84.4185C34.3029 80.4203 40.2421 70.5297 45.0765 62.9527Z" fill="black"/>
<path d="M25.5833 49.5403C34.3223 51.6404 38.1413 58.1613 38.9583 61.1592C42.665 46.9674 25.9501 42.8644 17.1293 42.5869L23.1144 36.6799L25.1551 34.0882L1.00684 44.1172C5.5577 45.0499 16.8442 47.4402 25.5833 49.5403Z" fill="black"/>
</g>
<path d="M50.4646 43.5685L55.6171 34.4619L48.1423 38.1723L40.9653 30.0069L41.8184 38.6259L32.651 43.1217L40.681 44.7805L41.9336 55.6948L45.8707 47.4244L56.0437 50.1157L50.4646 43.5685Z" fill="black"/>
<mask id="mask1_68_592" style="mask-type:alpha" maskUnits="userSpaceOnUse" x="711" y="107" width="69" height="71">
<path d="M738.662 108.017L753.811 125.972C754.643 126.958 756.011 127.302 757.21 126.826L776.53 119.166C778.314 118.459 779.973 120.427 778.975 122.066L766.629 142.332C765.961 143.429 766.065 144.829 766.888 145.815L779.495 160.914C780.728 162.391 779.369 164.587 777.497 164.142L754.809 158.746C753.574 158.452 752.288 158.968 751.597 160.034L740.933 176.496C739.894 178.1 737.414 177.473 737.261 175.569L735.484 153.409C735.381 152.121 734.464 151.044 733.209 150.736L713.422 145.878C711.551 145.418 711.347 142.84 713.122 142.092L734.57 133.058C735.744 132.564 736.478 131.382 736.4 130.111L735.137 109.429C735.02 107.507 737.42 106.545 738.662 108.017Z" fill="#D9D9D9"/>
</mask>
<g mask="url(#mask1_68_592)">
<path d="M736.888 125.834C737.609 134.793 732.598 140.45 730.003 142.159C744.643 141.27 743.347 124.108 740.869 115.638L748.344 119.49L751.442 120.624L734.403 100.79C734.931 105.405 736.168 116.876 736.888 125.834Z" fill="black"/>
<path d="M761.103 125.427C752.706 128.633 745.871 125.411 743.503 123.4C748.464 137.203 764.573 131.142 772.007 126.387L770.407 134.642L770.188 137.934L784.444 116.014C780.162 117.816 769.5 122.222 761.103 125.427Z" fill="black"/>
<path d="M768.353 148.185C762.571 141.304 763.372 133.79 764.496 130.893C753.084 140.107 764.093 153.337 771.024 158.8L762.7 159.997L759.519 160.869L784.902 167.146C781.795 163.693 774.136 155.065 768.353 148.185Z" fill="black"/>
<path d="M749.077 163.019C753.911 155.442 761.32 153.957 764.421 154.162C752.213 146.032 742.885 160.496 739.747 168.744L736.114 161.16L734.329 158.386L735.938 184.485C738.303 180.486 744.242 170.596 749.077 163.019Z" fill="black"/>
<path d="M729.583 149.606C738.322 151.707 742.141 158.227 742.958 161.225C746.665 147.034 729.95 142.931 721.129 142.653L727.114 136.746L729.155 134.154L705.007 144.183C709.558 145.116 720.844 147.506 729.583 149.606Z" fill="black"/>
</g>
<path d="M754.465 143.635L759.617 134.528L752.142 138.238L744.965 130.073L745.818 138.692L736.651 143.188L744.681 144.847L745.934 155.761L749.871 147.491L760.044 150.182L754.465 143.635Z" fill="black"/>
<path d="M741.384 144.92C741.574 144.52 741.814 144.15 742.104 143.83V109.15C742.004 108.28 741.964 107.37 741.984 106.42C742.044 103.66 742.074 100.9 742.104 98.1399V84.1299H742.204C742.214 75.0699 742.164 66.0099 742.144 56.9499C742.124 47.1199 742.114 37.2899 741.734 27.4699C741.504 21.5099 739.104 19.8899 732.364 20.0299C725.344 20.1799 723.464 21.5899 723.404 27.7699C723.274 42.2599 723.394 56.7499 723.404 71.2399C723.404 72.8299 723.404 74.4299 723.404 77.4299C720.774 75.1799 719.454 73.5499 717.744 72.6899C713.654 70.6499 709.514 67.8699 705.154 67.3399C688.364 65.2799 673.524 76.8299 671.694 93.6599C670.674 103.03 670.924 112.62 671.584 122.04C671.894 126.47 673.904 131.13 676.264 135C683.644 147.06 694.994 152.94 708.874 154.31C712.224 154.64 715.584 154.96 718.934 155.31C720.994 155.15 722.894 154.94 724.934 154.15C725.124 154.02 725.314 153.89 725.534 153.78C726.664 153.18 728.024 152.68 729.474 152.21C730.534 151.52 731.594 150.82 732.734 150.24C732.814 150.19 732.894 150.14 732.974 150.09C733.194 149.95 733.414 149.83 733.634 149.73C733.594 149.7 733.564 149.67 733.524 149.63C733.824 149.52 734.144 149.42 734.464 149.32C736.854 147.75 739.174 146.44 741.364 144.94L741.384 144.92ZM723.174 117.04C722.994 125.54 715.624 133.12 707.064 133.67C699.114 134.18 690.634 127.67 689.904 119.31C689.264 111.9 689.514 104.31 690.364 96.9099C691.144 90.2299 696.084 86.0899 702.204 83.9399C708.344 81.7799 713.854 83.9999 718.124 88.4199C720.184 90.5599 721.714 93.6899 722.344 96.6099C723.234 100.8 723.074 105.21 723.354 109.53H723.184C723.184 112.04 723.234 114.54 723.184 117.04H723.174Z" fill="black"/>
<path d="M129.965 82.8899C130.885 81.3099 131.335 80.4099 131.905 79.5899C139.415 68.7699 149.905 64.6499 162.395 67.9399C175.045 71.2799 182.985 80.6099 184.005 93.3199C185.335 109.87 184.665 126.6 184.535 143.25C184.505 147.78 181.505 149.43 175.435 149.4C169.545 149.37 166.585 147.34 166.405 142.41C166.105 134.09 166.305 125.75 166.165 117.42C166.055 110.59 166.125 103.74 165.485 96.9599C164.705 88.6899 158.795 83.4499 150.945 83.2699C143.325 83.0899 136.815 88.3599 136.275 96.6599C135.495 108.61 135.735 120.63 135.545 132.62C135.515 134.62 135.565 136.62 135.525 138.62C135.345 148.46 129.815 152.31 120.575 148.38C118.665 147.57 116.865 144.09 116.785 141.78C116.385 131.13 116.635 120.46 116.595 109.79C116.585 105.96 116.635 102.11 116.305 98.2999C115.515 89.4499 109.255 83.3399 101.215 83.3099C93.2946 83.2799 86.8546 89.5199 86.4946 98.5899C86.0246 110.24 86.2146 121.91 86.1246 133.58C86.1046 135.58 86.1546 137.58 86.0646 139.58C85.6846 147.58 83.1046 149.84 75.0746 149.31C69.7646 148.96 67.4146 146.8 67.4046 141.52C67.3546 119.86 67.3346 98.1899 67.6246 76.5299C67.6546 73.9299 69.1446 69.6499 70.8446 69.1399C74.4046 68.0799 78.7546 68.3599 82.3746 69.4599C83.9046 69.9199 84.3846 73.8399 85.7546 77.2099C91.9546 69.9499 99.4646 66.2299 108.955 66.9399C118.795 67.6699 123.845 74.6399 129.985 82.8799L129.965 82.8899Z" fill="black"/>
<path d="M235.014 150.3C223.574 150.38 212.684 148.5 203.904 140.42C201.644 138.34 199.734 135.62 198.424 132.84C196.484 128.72 198.174 123.9 201.774 121.29C205.634 118.5 208.664 120.47 211.554 123.03C219.194 129.8 227.764 134.29 238.314 132.98C245.514 132.08 252.094 129.71 254.734 121.94C257.484 113.88 255.044 107.11 248.744 101.79C245.984 99.4601 242.784 97.5301 239.514 95.9501C233.364 92.9901 226.944 90.6001 220.784 87.6401C205.584 80.3401 198.724 66.8701 201.214 50.3701C203.094 37.8901 210.504 30.3301 222.024 26.6101C235.614 22.2301 249.344 22.9201 262.834 27.2001C269.934 29.4601 272.384 33.5101 271.124 39.2901C269.674 45.9101 266.254 47.7101 259.814 45.4201C255.274 43.8101 250.754 41.8101 246.054 41.0701C241.374 40.3401 236.384 40.3801 231.704 41.1301C225.264 42.1601 220.824 46.2401 219.644 52.8701C218.564 58.9701 221.234 63.8401 226.454 66.7301C232.244 69.9401 238.434 72.4601 244.474 75.2201C254.694 79.9001 264.704 84.8301 270.324 95.3901C279.794 113.19 274.034 137.26 257.604 145.22C250.764 148.53 242.834 149.59 235.394 151.67C235.264 151.21 235.124 150.74 234.994 150.28L235.014 150.3Z" fill="black"/>
<path d="M307.714 140.07C307.714 145.87 307.734 150.78 307.714 155.68C307.664 163.84 307.784 172.01 307.434 180.17C307.184 186.06 304.984 187.28 296.744 187.15C290.584 187.05 289.214 186.07 289.154 179.92C288.934 157.76 288.904 135.6 288.894 113.43C288.884 101.27 289.074 89.1 289.094 76.94C289.094 72.4 289.774 68.66 295.394 67.98C301.754 67.21 304.504 68.79 306.454 74.89C306.554 75.19 306.814 75.44 307.394 76.29C308.524 75.55 309.894 75.01 310.784 74.04C320.534 63.39 342.584 63.76 352.954 79.72C356.284 84.84 358.534 91.17 359.424 97.22C360.494 104.54 359.774 112.16 359.494 119.64C359.114 129.76 354.244 137.7 346.714 144.15C336.644 152.77 323.124 152.66 312.424 143.92C311.064 142.81 309.714 141.7 307.724 140.06L307.714 140.07ZM307.644 108.69C307.644 111.61 307.644 114.27 307.644 116.93C307.644 125.66 314.444 132.84 323.504 133.65C330.984 134.32 339.874 127.68 340.494 119.82C341.104 112.09 340.934 104.18 340.064 96.48C339.224 89.03 331.164 83.31 323.424 83.45C316.154 83.58 309.524 89.4 308.424 97.02C307.854 100.95 307.874 104.97 307.654 108.7L307.644 108.69Z" fill="black"/>
<path d="M532.555 99.34C534.805 97.74 536.605 96.72 538.115 95.36C547.395 86.99 556.605 78.56 565.825 70.13C569.145 67.1 572.455 65.94 576.435 69.18C581.405 73.22 581.875 76.68 577.165 81.21C570.825 87.31 564.205 93.12 557.245 99.47C559.605 102.86 562.145 106.47 564.655 110.11C570.515 118.6 576.445 127.05 582.195 135.61C586.235 141.64 582.965 149.46 575.765 150.25C573.545 150.49 570.155 148.82 568.815 146.95C561.145 136.27 553.945 125.26 546.565 114.36C545.925 113.42 545.185 112.54 544.035 111.05C539.345 115.98 532.565 118.74 532.855 127.01C533.015 131.66 532.755 136.34 532.625 141C532.465 146.98 529.685 149.36 522.815 149.48C516.505 149.59 513.895 147.58 513.805 141.51C513.585 125.85 513.645 110.19 513.655 94.53C513.665 72.87 513.615 51.21 513.845 29.56C513.935 21.15 515.845 19.7 524.125 20.07C530.625 20.36 532.425 22.02 532.425 28.55C532.445 50.87 532.325 73.2 532.275 95.52C532.275 96.47 532.415 97.42 532.555 99.35V99.34Z" fill="black"/>
<path d="M45.6345 69.08C45.1545 68.24 44.3145 67.39 43.8045 66.57C40.9745 65.89 37.9145 66.3 34.6145 67.44C28.9345 69.38 28.9745 74.1 29.0045 79.01C31.3845 97.23 30.3745 115.58 30.5645 133.88C30.5945 136.87 30.7245 139.87 30.9445 142.85C31.2445 146.8 33.6845 148.66 37.4245 149.23C45.9445 150.54 49.5045 147.91 49.5545 139.4C49.6745 118.25 49.6345 97.09 49.3045 75.94C49.2645 73.63 46.9345 71.35 45.6245 69.08H45.6345Z" fill="black"/>
<path d="M630.905 113.16C624.915 113.16 618.924 113.23 612.934 113.13C609.954 113.08 608.854 114.11 609.064 117.27C609.654 125.87 614.175 131.55 622.465 133.78C630.255 135.88 637.594 134.76 644.744 131.25C652.044 127.66 655.374 128.05 657.744 132.5C660.094 136.89 658.134 141.16 652.004 145.07C636.624 154.85 609.984 151.13 598.204 137.63C593.514 132.26 590.985 125.99 590.785 118.99C590.555 111.35 590.354 103.64 591.144 96.0601C592.724 80.8901 604.924 69.3301 620.564 67.3101C637.564 65.1201 652.734 72.7001 657.934 87.3101C659.944 92.9701 659.385 99.6601 659.405 105.89C659.425 110.44 656.254 112.76 651.874 112.86C644.894 113.03 637.904 112.91 630.924 112.91V113.15L630.905 113.16ZM625.204 101.79V101.63C629.684 101.63 634.164 101.66 638.644 101.62C641.514 101.59 642.674 100.14 642.684 97.2101C642.694 88.3001 634.425 80.2401 625.405 81.0601C614.185 82.0801 608.964 89.6401 608.944 99.3001C608.944 100.12 611.064 101.58 612.264 101.67C616.564 101.96 620.884 101.78 625.204 101.78V101.79Z" fill="black"/>
<path d="M417.394 138.69C414.944 140.57 413.274 141.81 411.664 143.1C402.344 150.56 392.014 153.01 380.914 148.1C371.504 143.94 369.474 135.41 369.704 126.02C369.924 117.16 373.604 109.9 382.204 107.55C391.564 104.99 401.404 104.06 411.104 102.9C417.194 102.17 417.704 101.97 416.294 95.9801C414.114 86.7001 408.034 81.9001 398.664 82.8901C394.114 83.3701 389.674 85.0201 385.214 86.2601C381.784 87.2101 378.334 88.5801 376.034 84.3901C373.494 79.7701 374.184 74.7301 378.374 72.4801C391.284 65.5601 404.964 64.5801 418.304 70.4301C430.474 75.7701 434.754 86.9101 435.134 99.4201C435.554 113.22 435.404 127.05 435.214 140.87C435.114 148.23 427.464 152.13 421.034 148.23C419.804 147.48 418.974 145.77 418.404 144.33C417.834 142.89 417.824 141.24 417.404 138.7L417.394 138.69ZM411.664 112.81C406.754 113.53 401.744 113.86 396.944 115.05C390.594 116.63 386.954 122.76 388.524 128.16C390.304 134.29 395.364 136.96 402.204 135.36C409.784 133.58 416.004 126.14 416.744 118.38C417.124 114.39 416.234 112.14 411.664 112.81Z" fill="black"/>
<path d="M470.865 77.3101C472.195 76.2001 473.405 75.3601 474.415 74.3301C480.625 67.9501 488.345 66.3901 496.845 66.9701C501.575 67.2901 503.605 69.7101 503.575 74.3801C503.525 80.6301 502.335 82.4301 497.245 83.0801C477.015 85.7001 471.605 91.8101 471.365 112.54C471.255 122.02 471.415 131.51 471.215 140.98C471.075 147.63 468.745 149.39 461.135 149.28C454.375 149.18 452.615 147.63 452.585 140.62C452.515 119.33 452.555 98.0301 452.695 76.7401C452.745 69.7301 454.135 68.3101 460.045 67.8801C466.505 67.4101 468.755 69.2501 469.845 75.8201C469.895 76.1001 470.195 76.3501 470.865 77.3001V77.3101Z" fill="black"/>
</g>
<path d="M182.593 305.269C177.191 314.53 163.809 314.53 158.407 305.269L123.282 245.054C117.837 235.721 124.569 224 135.375 224L205.625 224C216.431 224 223.163 235.721 217.718 245.054L182.593 305.269Z" fill="#B9332D"/>
<path d="M177.904 304.205C174.814 309.484 167.185 309.484 164.096 304.205L130.049 246.041C126.927 240.708 130.773 234 136.953 234L205.047 234C211.227 234 215.073 240.708 211.951 246.041L177.904 304.205Z" fill="url(#paint0_linear_68_592)"/>
<mask id="mask2_68_592" style="mask-type:alpha" maskUnits="userSpaceOnUse" x="128" y="234" width="86" height="75">
<path d="M177.904 304.205C174.814 309.484 167.185 309.484 164.096 304.205L130.049 246.041C126.927 240.708 130.773 234 136.953 234L205.047 234C211.227 234 215.073 240.708 211.951 246.041L177.904 304.205Z" fill="#D9D9D9"/>
</mask>
<g mask="url(#mask2_68_592)">
<path d="M160 269L201 233.5C190.833 252.333 169.8 291.2 167 296C164.2 300.8 161.167 298.667 160 297L129 248.5L125 230C131.642 230.788 142.222 232.017 146.911 232.485C147.385 232.403 147.913 232.402 148.5 232.5C150.058 232.76 149.165 232.71 146.911 232.485C143.503 233.076 142.854 237.867 143 240.5L160 269Z" fill="url(#paint1_linear_68_592)"/>
</g>
<path d="M301.216 246.536L281.92 290.312L262.624 246.536H257.584L279.4 296H284.44L306.256 246.536H301.216ZM325.39 296H329.998V246.536H325.39V296ZM392.811 246.536L373.515 290.312L354.219 246.536H349.179L370.995 296H376.035L397.851 246.536H392.811ZM451.473 250.928V246.536H416.985V296H451.473V291.608H421.593V273.032H448.737V268.568H421.593V250.928H451.473ZM473.505 296H478.113V254.024L509.793 296H514.401V246.536H509.793V288.512L478.113 246.536H473.505V296ZM554.128 296.792C565.072 296.792 571.336 290.672 571.336 282.752C571.336 274.688 565.288 271.088 555.136 268.712C545.92 266.48 541.24 264.32 541.24 259.352C541.24 254.096 546.064 249.848 552.688 249.848C558.088 249.848 563.2 252.224 567.376 256.256L570.184 252.656C565.576 248.408 559.816 245.6 552.904 245.6C543.472 245.6 536.632 251.648 536.632 259.712C536.632 267.488 542.32 270.728 552.832 273.176C562.12 275.336 566.656 277.784 566.656 283.184C566.656 288.224 562.12 292.544 554.344 292.544C547.432 292.544 541.816 289.664 537.496 285.344L534.616 288.944C539.656 293.84 546.28 296.792 554.128 296.792ZM593.295 296H597.903V246.536H593.295V296ZM636.739 296H641.347V250.928H658.483V246.536H619.603V250.928H636.739V296ZM698.175 296H702.999V275.84L722.943 246.536H717.327L700.551 271.304L683.919 246.536H678.159L698.175 275.84V296Z" fill="#58575A"/>
<path d="M65.06 286H76.472C80.756 286 83.816 283.192 83.816 279.232C83.816 276.532 82.124 274.192 79.352 272.932C81.512 271.852 82.844 270.052 82.844 267.424C82.844 263.824 80.036 261.268 76.04 261.268H65.06V286ZM67.364 271.996V263.392H75.572C78.488 263.392 80.54 265.192 80.54 267.676C80.54 270.196 78.524 271.996 75.716 271.996H67.364ZM67.364 283.876V274.12H76.004C79.208 274.12 81.512 276.136 81.512 278.98C81.512 281.824 79.208 283.876 76.004 283.876H67.364ZM95.6443 286H98.0563V275.92L108.028 261.268H105.22L96.8323 273.652L88.5163 261.268H85.6363L95.6443 275.92V286Z" fill="#58575A"/>
<path d="M515.553 382H520.401V353.536H531.201V349.024H504.705V353.536H515.553V382Z" fill="#58575A"/>
<path d="M536.471 362.032V357.184H531.767V382H536.471V368.8C536.471 364 540.263 360.736 545.735 360.736V356.608C541.415 356.608 538.007 358.72 536.471 362.032Z" fill="#58575A"/>
<path d="M557.463 356.608C554.727 356.608 551.607 357.328 548.055 359.104L549.831 362.608C551.991 361.504 554.343 360.544 556.791 360.544C561.735 360.544 563.175 363.856 563.175 366.976V367.744C560.775 366.928 558.135 366.4 555.687 366.4C550.215 366.4 545.751 369.712 545.751 374.656C545.751 379.504 549.687 382.576 554.919 382.576C557.991 382.576 561.351 381.184 563.175 378.64V382H567.831V366.976C567.831 360.832 564.135 356.608 557.463 356.608ZM555.879 378.832C552.711 378.832 550.311 377.2 550.311 374.512C550.311 371.824 553.095 369.952 556.407 369.952C558.855 369.952 561.111 370.288 563.175 370.912V374.224C562.359 377.296 558.951 378.832 555.879 378.832Z" fill="#58575A"/>
<path d="M585.595 356.608C582.139 356.608 579.067 358.336 577.627 360.832V357.184H572.923V382H577.627V366.592C577.627 363.328 580.699 360.736 584.491 360.736C587.851 360.736 590.203 363.28 590.203 367.024V382H594.859V366.208C594.859 360.496 591.067 356.608 585.595 356.608Z" fill="#58575A"/>
<path d="M608.715 382.576C614.139 382.576 618.123 379.6 618.123 374.896C618.123 369.952 613.803 368.608 609.675 367.408C605.499 366.112 603.819 365.536 603.819 363.616C603.819 361.552 605.835 360.448 608.331 360.448C610.587 360.448 613.083 361.312 615.483 362.848L617.499 359.488C614.811 357.712 611.547 356.608 608.331 356.608C603.099 356.608 599.307 359.584 599.307 364.144C599.307 368.176 602.139 369.808 607.851 371.392C611.019 372.256 613.611 373.024 613.611 375.376C613.611 377.392 611.691 378.736 608.763 378.736C606.027 378.736 603.051 377.632 600.315 375.616L598.107 378.88C601.131 381.28 605.067 382.576 608.715 382.576Z" fill="#58575A"/>
<path d="M627.885 354.448C627.885 352.72 629.085 351.472 630.477 351.472C631.533 351.472 632.493 351.856 632.973 352.384L634.749 349.216C633.405 348.112 631.533 347.44 629.757 347.44C625.917 347.44 623.229 350.224 623.229 354.208V357.184H619.533V361.216H623.229V382H627.885V361.216H633.741V357.184H627.885V354.448Z" fill="#58575A"/>
<path d="M648.483 382.576C655.635 382.576 661.491 376.72 661.491 369.568C661.491 362.416 655.635 356.608 648.483 356.608C641.283 356.608 635.427 362.416 635.427 369.568C635.427 376.72 641.283 382.576 648.483 382.576ZM648.483 378.448C643.875 378.448 640.131 374.464 640.131 369.568C640.131 364.672 643.875 360.736 648.483 360.736C652.995 360.736 656.739 364.672 656.739 369.568C656.739 374.464 652.995 378.448 648.483 378.448Z" fill="#58575A"/>
<path d="M670.487 362.032V357.184H665.783V382H670.487V368.8C670.487 364 674.279 360.736 679.751 360.736V356.608C675.431 356.608 672.023 358.72 670.487 362.032Z" fill="#58575A"/>
<path d="M711.527 356.608C707.879 356.608 704.807 358.192 703.079 360.736C701.495 358.192 698.807 356.608 695.543 356.608C692.327 356.608 689.735 358.192 688.487 360.736V357.184H683.783V382H688.487V366.496C688.487 363.088 691.031 360.736 694.583 360.736C697.703 360.736 699.863 363.28 699.863 366.928V382H704.519V366.496C704.519 363.088 707.015 360.736 710.567 360.736C713.687 360.736 715.847 363.28 715.847 366.928V382H720.503V366.208C720.503 360.592 716.711 356.608 711.527 356.608Z" fill="#58575A"/>
<path d="M279.232 353.536V349.024H254.992V382H279.232V377.488H259.888V367.456H277.312V362.944H259.888V353.536H279.232Z" fill="#1C8CAC"/>
<path d="M312.292 356.608C308.644 356.608 305.572 358.192 303.844 360.736C302.26 358.192 299.572 356.608 296.308 356.608C293.092 356.608 290.5 358.192 289.252 360.736V357.184H284.548V382H289.252V366.496C289.252 363.088 291.796 360.736 295.348 360.736C298.468 360.736 300.628 363.28 300.628 366.928V382H305.284V366.496C305.284 363.088 307.78 360.736 311.332 360.736C314.452 360.736 316.612 363.28 316.612 366.928V382H321.268V366.208C321.268 360.592 317.476 356.608 312.292 356.608Z" fill="#1C8CAC"/>
<path d="M340.041 356.608C336.249 356.608 333.177 358.432 331.257 361.408V357.184H326.505V390.256H331.257V377.776C333.177 380.752 336.249 382.576 340.041 382.576C346.617 382.576 351.465 377.2 351.465 369.568C351.465 361.984 346.617 356.608 340.041 356.608ZM338.937 378.448C334.425 378.448 331.257 374.752 331.257 369.568C331.257 364.384 334.425 360.736 338.937 360.736C343.449 360.736 346.665 364.384 346.665 369.568C346.665 374.752 343.449 378.448 338.937 378.448Z" fill="#1C8CAC"/>
<path d="M367.654 382.576C374.806 382.576 380.662 376.72 380.662 369.568C380.662 362.416 374.806 356.608 367.654 356.608C360.454 356.608 354.598 362.416 354.598 369.568C354.598 376.72 360.454 382.576 367.654 382.576ZM367.654 378.448C363.046 378.448 359.302 374.464 359.302 369.568C359.302 364.672 363.046 360.736 367.654 360.736C372.166 360.736 375.91 364.672 375.91 369.568C375.91 374.464 372.166 378.448 367.654 378.448Z" fill="#1C8CAC"/>
<path d="M390.364 382H394.732L400.732 363.568L406.636 382H411.004L419.404 357.184H414.556L408.844 375.664L402.7 357.184H398.668L392.524 375.664L386.86 357.184H382.012L390.364 382Z" fill="#1C8CAC"/>
<path d="M433.412 378.64C429.044 378.64 425.972 375.472 425.396 371.104H445.172C445.172 362.272 440.756 356.608 433.172 356.608C426.308 356.608 420.74 362.08 420.74 369.52C420.74 377.152 426.644 382.576 433.556 382.576C437.06 382.576 441.38 381.088 443.588 378.736L440.804 375.808C439.22 377.44 436.148 378.64 433.412 378.64ZM433.316 360.544C437.636 360.544 440.084 363.616 440.564 367.6H425.444C426.164 363.328 429.332 360.544 433.316 360.544Z" fill="#1C8CAC"/>
<path d="M454.018 362.032V357.184H449.314V382H454.018V368.8C454.018 364 457.81 360.736 463.282 360.736V356.608C458.962 356.608 455.554 358.72 454.018 362.032Z" fill="#1C8CAC"/>
<path d="M470.482 382.576C472.162 382.576 473.602 381.088 473.602 379.312C473.602 377.68 472.162 376.192 470.482 376.192C468.658 376.192 467.218 377.68 467.218 379.312C467.218 381.088 468.658 382.576 470.482 382.576Z" fill="#1C8CAC"/>
<path d="M99.5518 382.528C107.328 382.528 111.552 378.304 111.552 372.736C111.552 366.832 106.992 364.624 100.416 363.088C94.9918 361.792 92.1598 360.736 92.1598 357.664C92.1598 355.024 94.7518 352.672 98.4478 352.672C101.808 352.672 105.12 354.16 107.904 356.704L110.688 353.056C107.52 350.272 103.728 348.4 98.6398 348.4C92.0158 348.4 87.2158 352.576 87.2158 358.096C87.2158 364.048 91.6798 366.064 98.3998 367.648C103.92 368.896 106.656 370.096 106.656 373.216C106.656 375.856 104.304 378.256 99.7438 378.256C95.2798 378.256 91.8238 376.432 88.8958 373.648L85.9678 377.248C89.4718 380.608 94.0318 382.528 99.5518 382.528Z" fill="#EE865A"/>
<path d="M130.181 356.608C126.389 356.608 123.317 358.432 121.397 361.408V357.184H116.645V390.256H121.397V377.776C123.317 380.752 126.389 382.576 130.181 382.576C136.757 382.576 141.605 377.2 141.605 369.568C141.605 361.984 136.757 356.608 130.181 356.608ZM129.077 378.448C124.565 378.448 121.397 374.752 121.397 369.568C121.397 364.384 124.565 360.736 129.077 360.736C133.589 360.736 136.805 364.384 136.805 369.568C136.805 374.752 133.589 378.448 129.077 378.448Z" fill="#EE865A"/>
<path d="M155.838 356.608C153.102 356.608 149.982 357.328 146.43 359.104L148.206 362.608C150.366 361.504 152.718 360.544 155.166 360.544C160.11 360.544 161.55 363.856 161.55 366.976V367.744C159.15 366.928 156.51 366.4 154.062 366.4C148.59 366.4 144.126 369.712 144.126 374.656C144.126 379.504 148.062 382.576 153.294 382.576C156.366 382.576 159.726 381.184 161.55 378.64V382H166.206V366.976C166.206 360.832 162.51 356.608 155.838 356.608ZM154.254 378.832C151.086 378.832 148.686 377.2 148.686 374.512C148.686 371.824 151.47 369.952 154.782 369.952C157.23 369.952 159.486 370.288 161.55 370.912V374.224C160.734 377.296 157.326 378.832 154.254 378.832Z" fill="#EE865A"/>
<path d="M176.002 362.032V357.184H171.298V382H176.002V368.8C176.002 364 179.794 360.736 185.266 360.736V356.608C180.946 356.608 177.538 358.72 176.002 362.032Z" fill="#EE865A"/>
<path d="M189.442 382H194.194V375.616L198.13 371.584L205.954 382H211.618L201.394 368.416L212.098 357.184H206.338L194.194 369.904V348.448H189.442V382Z" fill="#EE865A"/>
<path d="M219.185 382.576C220.865 382.576 222.305 381.088 222.305 379.312C222.305 377.68 220.865 376.192 219.185 376.192C217.361 376.192 215.921 377.68 215.921 379.312C215.921 381.088 217.361 382.576 219.185 382.576Z" fill="#EE865A"/>
<defs>
<linearGradient id="paint0_linear_68_592" x1="151.5" y1="282.5" x2="212" y2="241.5" gradientUnits="userSpaceOnUse">
<stop stop-color="#75266A"/>
<stop offset="0.682411" stop-color="#5188A9"/>
<stop offset="1" stop-color="#9CB9AD"/>
</linearGradient>
<linearGradient id="paint1_linear_68_592" x1="131" y1="238" x2="184" y2="264" gradientUnits="userSpaceOnUse">
<stop stop-color="#B9332D"/>
<stop offset="1" stop-color="#F68D2C"/>
</linearGradient>
<clipPath id="clip0_68_592">
<rect width="789.344" height="186.225" fill="white" transform="translate(0 0.933838)"/>
</clipPath>
</defs>
</svg>
