<svg width="57" height="57" viewBox="0 0 289 291" fill="none" xmlns="http://www.w3.org/2000/svg">
<g clip-path="url(#clip0_26_398)">
<rect width="289" height="291" fill="url(#paint0_linear_26_398)"/>
<path d="M190.11 132.829C190.162 133.115 189.817 133.3 189.607 133.099L188.071 131.626C187.977 131.536 187.836 131.517 187.722 131.578L185.846 132.585C185.59 132.722 185.308 132.452 185.434 132.19L186.36 130.274C186.416 130.157 186.391 130.016 186.297 129.926L184.761 128.454C184.551 128.253 184.721 127.901 185.009 127.94L187.118 128.228C187.246 128.246 187.372 128.179 187.428 128.061L188.354 126.145C188.48 125.883 188.868 125.936 188.919 126.222L189.297 128.317C189.32 128.445 189.423 128.543 189.552 128.561L191.66 128.849C191.948 128.888 192.017 129.273 191.761 129.411L189.886 130.417C189.772 130.478 189.71 130.606 189.733 130.734L190.11 132.829Z" fill="#717A7C"/>
<path d="M130.92 215.808C130.67 215.66 130.756 215.278 131.046 215.252L133.165 215.058C133.295 215.046 133.402 214.953 133.43 214.826L133.901 212.75C133.966 212.467 134.355 212.431 134.469 212.698L135.309 214.654C135.36 214.774 135.482 214.847 135.612 214.835L137.731 214.641C138.02 214.615 138.174 214.974 137.956 215.166L136.355 216.568C136.257 216.654 136.226 216.792 136.277 216.912L137.116 218.868C137.231 219.135 136.937 219.392 136.687 219.244L134.858 218.155C134.747 218.088 134.605 218.101 134.507 218.187L132.906 219.589C132.688 219.781 132.352 219.58 132.416 219.297L132.887 217.222C132.916 217.095 132.86 216.964 132.748 216.897L130.92 215.808Z" fill="#717A7C"/>
<path d="M97.1841 72.8904C97.0623 73.1543 96.674 73.1081 96.6175 72.8231L96.2034 70.7356C96.1781 70.6081 96.0736 70.5114 95.9445 70.496L93.8312 70.2448C93.5427 70.2105 93.4666 69.8269 93.7202 69.685L95.5776 68.6462C95.691 68.5827 95.7507 68.4534 95.7254 68.326L95.3113 66.2385C95.2548 65.9534 95.596 65.7625 95.8093 65.9599L97.3713 67.4053C97.4667 67.4936 97.6081 67.5104 97.7216 67.447L99.5789 66.4081C99.8326 66.2662 100.12 66.5318 99.9978 66.7957L99.1057 68.7279C99.0513 68.8459 99.079 68.9855 99.1744 69.0738L100.736 70.5192C100.95 70.7166 100.786 71.0716 100.497 71.0373L98.3839 70.7861C98.2548 70.7707 98.1306 70.8402 98.0761 70.9582L97.1841 72.8904Z" fill="#717A7C"/>
<path d="M181.462 5.75259C181.253 5.95527 180.907 5.77302 180.957 5.48663L181.318 3.38939C181.34 3.26131 181.277 3.13358 181.162 3.073L179.28 2.0811C179.022 1.94564 179.089 1.5603 179.377 1.51876L181.483 1.2145C181.611 1.19592 181.714 1.09662 181.736 0.96854L182.097 -1.1287C182.146 -1.4151 182.533 -1.471 182.662 -1.21028L183.602 0.698916C183.66 0.815511 183.786 0.881871 183.914 0.86329L186.02 0.559032C186.308 0.517483 186.481 0.868272 186.273 1.07095L184.747 2.55516C184.654 2.6458 184.63 2.78611 184.687 2.90271L185.628 4.81191C185.756 5.07262 185.476 5.34532 185.219 5.20987L183.336 4.21796C183.221 4.15739 183.08 4.17774 182.987 4.26838L181.462 5.75259Z" fill="#717A7C"/>
<path d="M196.843 280.046C196.987 279.793 197.37 279.873 197.402 280.162L197.632 282.278C197.646 282.407 197.742 282.512 197.869 282.539L199.953 282.973C200.237 283.033 200.279 283.421 200.014 283.541L198.074 284.414C197.955 284.467 197.884 284.591 197.898 284.72L198.129 286.835C198.16 287.124 197.804 287.285 197.609 287.07L196.179 285.493C196.091 285.397 195.952 285.368 195.833 285.421L193.892 286.294C193.627 286.414 193.365 286.124 193.509 285.872L194.566 284.025C194.631 283.912 194.615 283.77 194.528 283.674L193.098 282.098C192.902 281.883 193.097 281.544 193.381 281.603L195.464 282.037C195.592 282.064 195.722 282.005 195.786 281.893L196.843 280.046Z" fill="#717A7C"/>
<path d="M175.681 23.7034C175.865 23.9285 175.653 24.2573 175.372 24.1832L174.541 23.9639C174.415 23.9307 174.282 23.9822 174.212 24.0915L173.747 24.8142C173.589 25.0586 173.211 24.9588 173.195 24.6687L173.147 23.8104C173.139 23.6806 173.049 23.5703 172.924 23.5372L172.092 23.3179C171.811 23.2437 171.789 22.8533 172.06 22.7481L172.862 22.437C172.983 22.3899 173.06 22.2702 173.053 22.1405L173.004 21.2822C172.988 20.992 173.353 20.8505 173.536 21.0757L174.08 21.7416C174.162 21.8423 174.3 21.8787 174.421 21.8316L175.222 21.5205C175.493 21.4153 175.74 21.7182 175.583 21.9626L175.118 22.6853C175.047 22.7946 175.055 22.9367 175.137 23.0374L175.681 23.7034Z" fill="#717A7C"/>
<path d="M260.138 63.9642C259.847 63.9754 259.712 63.6085 259.941 63.4287L260.616 62.8969C260.718 62.8165 260.757 62.6794 260.712 62.5575L260.415 61.7508C260.314 61.4781 260.621 61.2362 260.863 61.3978L261.578 61.8758C261.686 61.948 261.828 61.9425 261.93 61.8621L262.605 61.3303C262.834 61.1505 263.159 61.3679 263.08 61.6475L262.846 62.4748C262.81 62.5998 262.86 62.7335 262.968 62.8057L263.682 63.2837C263.924 63.4453 263.817 63.8216 263.527 63.8328L262.668 63.8661C262.538 63.8711 262.426 63.9592 262.391 64.0843L262.157 64.9115C262.078 65.1912 261.687 65.2063 261.587 64.9336L261.29 64.127C261.245 64.005 261.127 63.9258 260.997 63.9309L260.138 63.9642Z" fill="#717A7C"/>
<path d="M185.391 102.041C185.681 102.06 185.777 102.439 185.531 102.594L183.731 103.729C183.621 103.798 183.568 103.931 183.6 104.057L184.123 106.12C184.194 106.401 183.863 106.61 183.64 106.424L182.004 105.062C181.905 104.979 181.763 104.97 181.653 105.039L179.852 106.173C179.606 106.328 179.306 106.078 179.414 105.808L180.203 103.832C180.251 103.711 180.216 103.573 180.117 103.49L178.481 102.129C178.258 101.943 178.403 101.579 178.693 101.599L180.816 101.739C180.946 101.748 181.067 101.672 181.115 101.551L181.904 99.5747C182.012 99.3048 182.402 99.3306 182.474 99.6123L182.997 101.675C183.028 101.801 183.138 101.892 183.268 101.901L185.391 102.041Z" fill="#717A7C"/>
<path d="M106.137 281.697C106.141 281.407 106.515 281.291 106.682 281.528L107.91 283.267C107.985 283.373 108.119 283.419 108.244 283.38L110.276 282.75C110.554 282.664 110.779 282.984 110.605 283.217L109.331 284.921C109.253 285.025 109.251 285.168 109.326 285.274L110.554 287.012C110.721 287.25 110.487 287.563 110.212 287.469L108.197 286.784C108.074 286.742 107.938 286.785 107.86 286.889L106.586 288.593C106.412 288.826 106.042 288.7 106.046 288.41L106.075 286.282C106.077 286.152 105.994 286.035 105.871 285.993L103.857 285.308C103.581 285.215 103.587 284.824 103.864 284.738L105.897 284.108C106.021 284.069 106.107 283.955 106.108 283.825L106.137 281.697Z" fill="#717A7C"/>
<path d="M14.3484 235.127C14.567 234.935 14.9029 235.135 14.8386 235.419L14.3678 237.494C14.3391 237.621 14.3952 237.752 14.5069 237.818L16.3353 238.908C16.5849 239.056 16.4984 239.438 16.209 239.464L14.0897 239.658C13.9603 239.669 13.8532 239.763 13.8244 239.89L13.3536 241.965C13.2893 242.249 12.8999 242.284 12.7854 242.017L11.9463 240.062C11.8951 239.942 11.7727 239.869 11.6433 239.881L9.52397 240.075C9.23455 240.101 9.08039 239.742 9.29899 239.55L10.8998 238.148C10.9975 238.062 11.029 237.923 10.9778 237.804L10.1388 235.848C10.0242 235.581 10.3183 235.323 10.568 235.472L12.3964 236.561C12.508 236.628 12.6498 236.615 12.7476 236.529L14.3484 235.127Z" fill="#717A7C"/>
<path d="M124.72 65.3795C124.706 65.6698 124.329 65.7724 124.17 65.5293L123.004 63.7489C122.932 63.6402 122.799 63.5897 122.674 63.6238L120.62 64.1825C120.34 64.2588 120.126 63.9316 120.308 63.7051L121.641 62.0461C121.722 61.9447 121.729 61.8025 121.658 61.6938L120.492 59.9134C120.333 59.6703 120.578 59.3655 120.849 59.4686L122.839 60.2236C122.961 60.2697 123.098 60.2324 123.179 60.1311L124.512 58.472C124.694 58.2455 125.06 58.3842 125.046 58.6745L124.943 60.8002C124.936 60.93 125.014 61.0491 125.136 61.0952L127.126 61.8502C127.397 61.9533 127.378 62.3439 127.098 62.4202L125.044 62.9789C124.919 63.013 124.83 63.124 124.823 63.2538L124.72 65.3795Z" fill="#717A7C"/>
<path d="M283.14 37.6467L283.625 39.431L285.472 39.5207L283.925 40.5337L284.411 42.318L282.969 41.1598L281.422 42.1729L282.078 40.444L280.637 39.2858L282.484 39.3755L283.14 37.6467Z" fill="#717A7C"/>
<path d="M210.002 170.694L208.56 169.536L207.013 170.549L207.669 168.82L206.228 167.662L208.075 167.752L208.731 166.023L209.216 167.807L211.063 167.897L209.516 168.91L210.002 170.694Z" fill="#717A7C"/>
<path d="M14.12 227.502C13.9962 227.239 14.2811 226.971 14.5358 227.111L16.4011 228.135C16.515 228.198 16.6563 228.18 16.751 228.091L18.3019 226.634C18.5136 226.435 18.8564 226.623 18.802 226.908L18.4039 228.999C18.3796 229.127 18.4403 229.256 18.5542 229.318L20.4195 230.343C20.6742 230.483 20.6011 230.867 20.3128 230.903L18.2014 231.171C18.0725 231.187 17.9688 231.285 17.9444 231.412L17.5464 233.503C17.492 233.788 17.1041 233.837 16.9803 233.575L16.0735 231.649C16.0181 231.532 15.8933 231.463 15.7644 231.479L13.6531 231.747C13.3648 231.783 13.1981 231.43 13.4099 231.231L14.9608 229.773C15.0555 229.684 15.0821 229.544 15.0268 229.427L14.12 227.502Z" fill="#717A7C"/>
<path d="M82.4831 224.432C82.3197 224.192 82.5593 223.883 82.8327 223.981L84.8353 224.701C84.9576 224.745 85.0943 224.706 85.174 224.603L86.4778 222.921C86.6558 222.691 87.0238 222.823 87.0147 223.114L86.9486 225.241C86.9446 225.371 87.0246 225.489 87.1469 225.533L89.1495 226.253C89.423 226.351 89.4109 226.742 89.1318 226.823L87.0883 227.418C86.9635 227.454 86.8763 227.567 86.8723 227.696L86.8062 229.824C86.7971 230.114 86.4217 230.223 86.2582 229.983L85.0614 228.223C84.9883 228.116 84.8544 228.068 84.7296 228.104L82.6861 228.698C82.407 228.779 82.1871 228.456 82.3652 228.226L83.669 226.544C83.7486 226.442 83.753 226.299 83.6799 226.192L82.4831 224.432Z" fill="#717A7C"/>
<path d="M-0.9051 266.507C-1.16679 266.381 -1.11386 265.993 -0.82785 265.942L1.26656 265.564C1.39447 265.541 1.49298 265.438 1.51057 265.31L1.79868 263.201C1.83802 262.913 2.22284 262.844 2.36026 263.1L3.36657 264.975C3.42802 265.09 3.55623 265.151 3.68414 265.128L5.77855 264.751C6.06455 264.699 6.24945 265.044 6.04837 265.254L4.5759 266.79C4.48597 266.884 4.4667 267.025 4.52816 267.14L5.53447 269.015C5.67188 269.271 5.40134 269.553 5.13965 269.427L3.2233 268.501C3.10626 268.445 2.96614 268.47 2.87622 268.564L1.40374 270.1C1.20267 270.31 0.850563 270.14 0.889906 269.852L1.17801 267.744C1.19561 267.615 1.12828 267.489 1.01125 267.433L-0.9051 266.507Z" fill="#717A7C"/>
<path d="M213.925 45.5861C214.186 45.7125 214.133 46.0999 213.847 46.1514L211.753 46.529C211.625 46.5521 211.527 46.6549 211.509 46.7837L211.221 48.8922C211.182 49.1802 210.797 49.2496 210.659 48.9935L209.653 47.1183C209.592 47.0037 209.463 46.9418 209.335 46.9649L207.241 47.3425C206.955 47.394 206.77 47.0495 206.971 46.8396L208.444 45.3031C208.534 45.2093 208.553 45.0682 208.491 44.9537L207.485 43.0785C207.348 42.8224 207.618 42.5401 207.88 42.6665L209.796 43.5921C209.913 43.6486 210.053 43.6233 210.143 43.5295L211.616 41.993C211.817 41.7831 212.169 41.9532 212.13 42.2411L211.842 44.3497C211.824 44.4785 211.891 44.6039 212.008 44.6605L213.925 45.5861Z" fill="#717A7C"/>
<path d="M101.137 143.099C100.847 143.12 100.699 142.758 100.921 142.571L102.546 141.197C102.646 141.113 102.679 140.974 102.63 140.854L101.826 138.884C101.716 138.615 102.014 138.362 102.261 138.515L104.07 139.636C104.181 139.705 104.323 139.694 104.422 139.61L106.047 138.236C106.269 138.048 106.601 138.254 106.532 138.537L106.025 140.604C105.994 140.73 106.048 140.862 106.159 140.93L107.968 142.051C108.215 142.204 108.122 142.584 107.832 142.605L105.709 142.762C105.58 142.771 105.471 142.863 105.44 142.989L104.933 145.056C104.864 145.339 104.474 145.367 104.364 145.098L103.559 143.128C103.51 143.008 103.389 142.933 103.259 142.942L101.137 143.099Z" fill="#717A7C"/>
<path d="M176.046 226.345C175.756 226.341 175.64 225.968 175.877 225.8L177.616 224.573C177.722 224.498 177.768 224.363 177.729 224.239L177.099 222.206C177.013 221.929 177.333 221.703 177.566 221.877L179.27 223.151C179.374 223.229 179.517 223.231 179.623 223.156L181.361 221.929C181.599 221.761 181.912 221.995 181.818 222.271L181.133 224.285C181.091 224.409 181.134 224.544 181.238 224.622L182.942 225.897C183.175 226.071 183.049 226.441 182.758 226.437L180.63 226.408C180.5 226.406 180.384 226.488 180.342 226.611L179.657 228.626C179.564 228.901 179.173 228.896 179.087 228.618L178.457 226.586C178.418 226.461 178.304 226.376 178.174 226.374L176.046 226.345Z" fill="#717A7C"/>
<path d="M223.553 91.3855C223.265 91.427 223.092 91.0762 223.301 90.8735L224.826 89.3893C224.919 89.2987 224.943 89.1584 224.886 89.0418L223.945 87.1326C223.817 86.8719 224.097 86.5992 224.354 86.7346L226.237 87.7265C226.352 87.7871 226.493 87.7667 226.586 87.6761L228.111 86.1919C228.32 85.9892 228.666 86.1715 228.616 86.4579L228.255 88.5551C228.233 88.6832 228.296 88.8109 228.411 88.8715L230.293 89.8634C230.551 89.9988 230.484 90.3842 230.197 90.4257L228.09 90.73C227.962 90.7486 227.86 90.8479 227.837 90.9759L227.476 93.0732C227.427 93.3596 227.04 93.4155 226.911 93.1548L225.971 91.2456C225.914 91.129 225.788 91.0626 225.659 91.0812L223.553 91.3855Z" fill="#717A7C"/>
<path d="M280.439 285.927C280.317 286.191 279.929 286.145 279.872 285.86L279.458 283.772C279.433 283.645 279.328 283.548 279.199 283.533L277.086 283.281C276.798 283.247 276.721 282.864 276.975 282.722L278.832 281.683C278.946 281.619 279.006 281.49 278.98 281.363L278.566 279.275C278.51 278.99 278.851 278.799 279.064 278.997L280.626 280.442C280.722 280.53 280.863 280.547 280.976 280.484L282.834 279.445C283.087 279.303 283.374 279.568 283.253 279.832L282.361 281.764C282.306 281.882 282.334 282.022 282.429 282.11L283.991 283.556C284.205 283.753 284.041 284.108 283.752 284.074L281.639 283.823C281.51 283.807 281.385 283.877 281.331 283.995L280.439 285.927Z" fill="#717A7C"/>
<path d="M200.938 221.739C201.073 221.482 201.459 221.548 201.5 221.836L201.644 222.834C201.663 222.962 201.762 223.064 201.89 223.086L202.884 223.258C203.17 223.307 203.226 223.694 202.965 223.822L202.061 224.268C201.944 224.325 201.878 224.451 201.897 224.58L202.041 225.577C202.082 225.865 201.731 226.038 201.529 225.829L200.826 225.107C200.735 225.014 200.595 224.99 200.478 225.047L199.574 225.492C199.313 225.621 199.041 225.341 199.176 225.083L199.646 224.192C199.706 224.077 199.686 223.936 199.595 223.843L198.893 223.12C198.69 222.912 198.872 222.566 199.158 222.615L200.152 222.787C200.28 222.809 200.408 222.746 200.468 222.631L200.938 221.739Z" fill="#717A7C"/>
<path d="M184.748 7.57009C184.48 7.45756 184.513 7.0679 184.796 7.00144L185.777 6.77094C185.903 6.74122 185.996 6.63341 186.007 6.50389L186.091 5.49947C186.116 5.20987 186.496 5.12045 186.647 5.36898L187.169 6.23094C187.237 6.34209 187.368 6.39722 187.494 6.3675L188.476 6.137C188.759 6.07054 188.961 6.40494 188.771 6.625L188.113 7.38822C188.028 7.48663 188.016 7.62852 188.084 7.73966L188.606 8.60163C188.757 8.85016 188.501 9.14625 188.233 9.03372L187.304 8.64345C187.184 8.59313 187.046 8.62569 186.961 8.7241L186.302 9.48732C186.113 9.70738 185.752 9.55598 185.776 9.26637L185.86 8.26195C185.871 8.13244 185.797 8.01068 185.677 7.96035L184.748 7.57009Z" fill="#717A7C"/>
<path d="M16.2613 174.324C16.0413 174.134 16.1927 173.774 16.4823 173.798L17.1705 173.855C17.3 173.866 17.4218 173.793 17.4721 173.673L17.7395 173.036C17.852 172.768 18.2417 172.801 18.3081 173.084L18.4661 173.756C18.4958 173.882 18.6036 173.975 18.7331 173.986L19.4213 174.044C19.7109 174.068 19.8003 174.449 19.5518 174.599L18.9612 174.957C18.8501 175.025 18.7949 175.156 18.8246 175.282L18.9826 175.955C19.049 176.238 18.7146 176.44 18.4946 176.25L17.9716 175.799C17.8732 175.714 17.7314 175.703 17.6202 175.77L17.0296 176.128C16.7811 176.279 16.485 176.023 16.5975 175.755L16.8649 175.118C16.9152 174.999 16.8827 174.86 16.7843 174.775L16.2613 174.324Z" fill="#717A7C"/>
<path d="M32.7018 123.929C32.5987 124.201 32.2081 124.182 32.1318 123.902L31.9505 123.235C31.9164 123.11 31.8054 123.021 31.6756 123.014L30.9858 122.981C30.6956 122.967 30.5929 122.589 30.836 122.43L31.4138 122.052C31.5225 121.981 31.573 121.848 31.5389 121.722L31.3576 121.056C31.2813 120.775 31.6084 120.561 31.835 120.743L32.3733 121.176C32.4746 121.257 32.6168 121.264 32.7256 121.193L33.3033 120.814C33.5464 120.655 33.8513 120.9 33.7481 121.172L33.5031 121.818C33.457 121.939 33.4944 122.076 33.5957 122.158L34.1341 122.59C34.3606 122.772 34.2219 123.138 33.9316 123.124L33.2418 123.09C33.112 123.084 32.9929 123.162 32.9468 123.284L32.7018 123.929Z" fill="#717A7C"/>
<path d="M42.3401 241.986C42.3917 242.272 42.0471 242.457 41.8373 242.256L41.3387 241.778C41.2449 241.689 41.1038 241.669 40.9893 241.731L40.3808 242.057C40.1247 242.195 39.8424 241.924 39.9688 241.662L40.2691 241.041C40.3257 240.924 40.3004 240.783 40.2066 240.694L39.708 240.216C39.4981 240.015 39.6682 239.663 39.9561 239.702L40.6404 239.795C40.7691 239.813 40.8946 239.746 40.9511 239.629L41.2515 239.007C41.3779 238.745 41.7653 238.798 41.8169 239.084L41.9394 239.764C41.9624 239.892 42.0652 239.99 42.194 240.008L42.8782 240.101C43.1662 240.14 43.2356 240.525 42.9795 240.663L42.371 240.989C42.2565 241.051 42.1945 241.179 42.2176 241.307L42.3401 241.986Z" fill="#717A7C"/>
<path d="M198.186 147.495C198.018 147.258 198.252 146.945 198.527 147.038L199.181 147.261C199.304 147.302 199.44 147.26 199.518 147.156L199.932 146.603C200.106 146.37 200.476 146.496 200.472 146.787L200.462 147.477C200.461 147.607 200.543 147.724 200.666 147.765L201.32 147.988C201.595 148.081 201.589 148.472 201.312 148.558L200.652 148.763C200.528 148.801 200.443 148.915 200.441 149.045L200.432 149.736C200.428 150.026 200.054 150.142 199.887 149.905L199.488 149.341C199.413 149.234 199.279 149.189 199.154 149.227L198.495 149.431C198.217 149.518 197.992 149.198 198.166 148.965L198.579 148.412C198.657 148.308 198.659 148.166 198.584 148.06L198.186 147.495Z" fill="#717A7C"/>
<path d="M37.434 103.772C37.2277 103.568 37.4039 103.218 37.6911 103.263L38.3736 103.368C38.502 103.388 38.6287 103.323 38.6872 103.207L38.9984 102.59C39.1293 102.331 39.5158 102.391 39.5623 102.678L39.673 103.359C39.6938 103.487 39.7949 103.588 39.9233 103.608L40.6058 103.713C40.893 103.757 40.9557 104.143 40.6972 104.276L40.0831 104.592C39.9675 104.652 39.9034 104.779 39.9242 104.907L40.0349 105.589C40.0814 105.876 39.7337 106.054 39.5274 105.85L39.0372 105.363C38.945 105.272 38.8043 105.25 38.6887 105.309L38.0746 105.625C37.8161 105.758 37.5386 105.483 37.6695 105.223L37.9807 104.607C38.0392 104.491 38.0164 104.35 37.9242 104.259L37.434 103.772Z" fill="#717A7C"/>
<path d="M57.261 4.24992C57.5482 4.29429 57.6109 4.68026 57.3524 4.81319L56.7383 5.12906C56.6227 5.18851 56.5586 5.31562 56.5794 5.44391L56.6901 6.12558C56.7366 6.41244 56.3889 6.59129 56.1826 6.38659L55.6924 5.90014C55.6002 5.80859 55.4595 5.78686 55.3439 5.84631L54.7298 6.16218C54.4713 6.29511 54.1938 6.01968 54.3247 5.76023L54.6359 5.14371C54.6945 5.02769 54.6716 4.88715 54.5794 4.7956L54.0892 4.30915C53.8829 4.10444 54.0591 3.75536 54.3463 3.79973L55.0288 3.90514C55.1573 3.92498 55.2839 3.85986 55.3424 3.74383L55.6536 3.12731C55.7845 2.86787 56.171 2.92756 56.2175 3.21442L56.3282 3.89609C56.349 4.02438 56.4501 4.12467 56.5785 4.14451L57.261 4.24992Z" fill="#717A7C"/>
<path d="M-1.01327 162.861C-1.21955 162.656 -1.04337 162.307 -0.756157 162.352L-0.07366 162.457C0.0547848 162.477 0.181396 162.412 0.239956 162.296L0.551118 161.679C0.682062 161.42 1.0685 161.48 1.11506 161.766L1.22571 162.448C1.24653 162.576 1.34759 162.677 1.47604 162.696L2.15854 162.802C2.44575 162.846 2.5084 163.232 2.24996 163.365L1.63585 163.681C1.52027 163.74 1.45612 163.868 1.47694 163.996L1.58759 164.678C1.63415 164.964 1.28643 165.143 1.08015 164.939L0.589958 164.452C0.497706 164.361 0.356996 164.339 0.24142 164.398L-0.372695 164.714C-0.631129 164.847 -0.908681 164.572 -0.777737 164.312L-0.466576 163.696C-0.408016 163.58 -0.430828 163.439 -0.52308 163.348L-1.01327 162.861Z" fill="#717A7C"/>
<path d="M238.107 152.212C238.057 152.498 237.67 152.554 237.542 152.294L237.237 151.674C237.179 151.558 237.053 151.491 236.925 151.51L236.241 151.608C235.954 151.65 235.781 151.299 235.989 151.097L236.484 150.615C236.577 150.524 236.601 150.384 236.544 150.267L236.239 149.648C236.111 149.387 236.391 149.114 236.648 149.25L237.259 149.572C237.374 149.632 237.515 149.612 237.608 149.521L238.103 149.04C238.311 148.837 238.657 149.019 238.608 149.306L238.49 149.986C238.468 150.114 238.531 150.242 238.646 150.303L239.257 150.624C239.514 150.76 239.448 151.145 239.16 151.187L238.477 151.286C238.348 151.304 238.246 151.403 238.224 151.532L238.107 152.212Z" fill="#717A7C"/>
<path d="M84.8636 195.818C85.1515 195.857 85.2209 196.242 84.9648 196.38L84.3563 196.706C84.2418 196.768 84.1799 196.896 84.2029 197.024L84.3255 197.703C84.377 197.989 84.0325 198.174 83.8227 197.973L83.324 197.495C83.2302 197.405 83.0891 197.386 82.9746 197.448L82.3661 197.774C82.11 197.912 81.8277 197.641 81.9541 197.379L82.2545 196.757C82.311 196.64 82.2857 196.5 82.1919 196.41L81.6933 195.933C81.4835 195.732 81.6535 195.379 81.9415 195.419L82.6257 195.512C82.7545 195.53 82.8799 195.463 82.9365 195.345L83.2368 194.724C83.3632 194.462 83.7506 194.515 83.8022 194.801L83.9247 195.481C83.9478 195.608 84.0506 195.707 84.1794 195.725L84.8636 195.818Z" fill="#717A7C"/>
<path d="M180.294 240.18C180.416 239.916 180.805 239.962 180.861 240.247L180.995 240.924C181.021 241.052 181.125 241.149 181.254 241.164L181.94 241.245C182.229 241.28 182.305 241.663 182.051 241.805L181.448 242.142C181.335 242.206 181.275 242.335 181.301 242.463L181.435 243.14C181.491 243.425 181.15 243.616 180.937 243.418L180.43 242.949C180.335 242.861 180.193 242.844 180.08 242.908L179.477 243.245C179.223 243.387 178.936 243.121 179.058 242.857L179.348 242.23C179.402 242.112 179.375 241.973 179.279 241.884L178.772 241.415C178.559 241.218 178.723 240.863 179.011 240.897L179.697 240.979C179.826 240.994 179.951 240.925 180.005 240.807L180.294 240.18Z" fill="#717A7C"/>
<path d="M251.418 67.0638C251.269 67.3135 250.888 67.227 250.861 66.9376L250.799 66.2498C250.787 66.1204 250.693 66.0133 250.566 65.9846L249.893 65.8318C249.609 65.7675 249.574 65.3781 249.841 65.2635L250.475 64.9913C250.595 64.94 250.668 64.8177 250.656 64.6883L250.593 64.0005C250.567 63.7111 250.926 63.557 251.118 63.7756L251.573 64.295C251.658 64.3928 251.797 64.4243 251.917 64.373L252.551 64.1008C252.818 63.9862 253.076 64.2803 252.927 64.53L252.574 65.1233C252.507 65.235 252.52 65.3767 252.606 65.4745L253.061 65.994C253.252 66.2126 253.052 66.5485 252.769 66.4842L252.095 66.3314C251.969 66.3027 251.838 66.3588 251.771 66.4705L251.418 67.0638Z" fill="#717A7C"/>
<path d="M43.8934 28.1397C44.1153 27.952 44.4477 28.158 44.3785 28.4402L44.214 29.1109C44.183 29.2371 44.2368 29.369 44.3473 29.4374L44.9344 29.8011C45.1814 29.9542 45.0883 30.3339 44.7985 30.3553L44.1097 30.4061C43.9801 30.4157 43.8714 30.5076 43.8404 30.6339L43.6759 31.3046C43.6067 31.5868 43.2168 31.6156 43.1069 31.3466L42.8457 30.7072C42.7966 30.5869 42.6755 30.5119 42.5459 30.5215L41.8572 30.5723C41.5674 30.5937 41.4195 30.2317 41.6414 30.0441L42.1687 29.5981C42.268 29.5142 42.3019 29.3759 42.2527 29.2556L41.9916 28.6163C41.8817 28.3473 42.1803 28.0948 42.4273 28.2478L43.0144 28.6115C43.1248 28.68 43.2668 28.6695 43.3661 28.5856L43.8934 28.1397Z" fill="#717A7C"/>
<path d="M179.284 254.18C179.27 254.47 178.892 254.573 178.733 254.33L178.355 253.752C178.284 253.643 178.15 253.593 178.025 253.627L177.359 253.808C177.078 253.884 176.864 253.557 177.046 253.331L177.479 252.792C177.56 252.691 177.567 252.549 177.496 252.44L177.117 251.862C176.958 251.619 177.203 251.314 177.475 251.418L178.12 251.663C178.242 251.709 178.379 251.671 178.461 251.57L178.893 251.032C179.075 250.805 179.441 250.944 179.427 251.234L179.393 251.924C179.387 252.054 179.465 252.173 179.587 252.219L180.232 252.464C180.504 252.567 180.485 252.958 180.205 253.034L179.538 253.215C179.413 253.249 179.324 253.36 179.317 253.49L179.284 254.18Z" fill="#717A7C"/>
<path d="M264.885 32.3138C264.597 32.2795 264.521 31.896 264.774 31.7541L265.377 31.417C265.49 31.3535 265.55 31.2243 265.525 31.0968L265.39 30.4194C265.334 30.1343 265.675 29.9435 265.888 30.1408L266.395 30.6099C266.491 30.6982 266.632 30.715 266.745 30.6515L267.348 30.3144C267.602 30.1725 267.889 30.4381 267.767 30.702L267.478 31.329C267.423 31.447 267.451 31.5866 267.546 31.6749L268.053 32.1439C268.266 32.3413 268.102 32.6964 267.814 32.662L267.128 32.5805C266.999 32.5652 266.875 32.6347 266.82 32.7527L266.531 33.3797C266.409 33.6435 266.021 33.5974 265.964 33.3123L265.83 32.6349C265.805 32.5074 265.7 32.4107 265.571 32.3954L264.885 32.3138Z" fill="#717A7C"/>
<path d="M118.797 212.974C118.692 212.703 118.995 212.456 119.239 212.613L119.82 212.987C119.929 213.057 120.071 213.049 120.172 212.967L120.707 212.53C120.932 212.347 121.261 212.558 121.187 212.839L121.011 213.507C120.978 213.633 121.029 213.765 121.138 213.836L121.719 214.21C121.963 214.367 121.864 214.745 121.573 214.761L120.884 214.8C120.754 214.808 120.644 214.898 120.611 215.023L120.434 215.691C120.36 215.972 119.97 215.994 119.865 215.723L119.615 215.079C119.568 214.958 119.448 214.881 119.318 214.888L118.629 214.927C118.339 214.943 118.197 214.579 118.422 214.395L118.957 213.959C119.058 213.876 119.094 213.739 119.047 213.618L118.797 212.974Z" fill="#717A7C"/>
<path d="M87.7681 78.5228C87.9254 78.2784 88.3035 78.3782 88.3198 78.6684L88.3586 79.3579C88.3659 79.4876 88.456 79.5979 88.5816 79.6311L89.2494 79.8073C89.5304 79.8814 89.5523 80.2718 89.2814 80.377L88.6376 80.6269C88.5165 80.674 88.4394 80.7937 88.4467 80.9235L88.4855 81.613C88.5018 81.9031 88.1373 82.0446 87.9535 81.8195L87.5169 81.2845C87.4347 81.1838 87.297 81.1475 87.1759 81.1945L86.5321 81.4445C86.2612 81.5496 86.014 81.2467 86.1713 81.0024L86.5452 80.4218C86.6156 80.3125 86.6076 80.1703 86.5254 80.0696L86.0887 79.5346C85.905 79.3095 86.1167 78.9807 86.3977 79.0549L87.0654 79.231C87.1911 79.2642 87.3238 79.2127 87.3942 79.1034L87.7681 78.5228Z" fill="#717A7C"/>
<path d="M261.462 230.88C261.695 231.054 261.569 231.424 261.279 231.42L260.588 231.411C260.458 231.409 260.342 231.491 260.3 231.614L260.078 232.268C259.984 232.543 259.593 232.538 259.507 232.26L259.303 231.601C259.264 231.476 259.15 231.391 259.02 231.389L258.33 231.38C258.039 231.376 257.923 231.003 258.161 230.835L258.725 230.437C258.831 230.362 258.877 230.227 258.839 230.103L258.634 229.443C258.548 229.166 258.868 228.94 259.1 229.114L259.653 229.528C259.757 229.605 259.9 229.607 260.006 229.532L260.57 229.134C260.808 228.966 261.121 229.201 261.027 229.476L260.805 230.13C260.763 230.253 260.805 230.389 260.909 230.466L261.462 230.88Z" fill="#717A7C"/>
<path d="M183.783 267.08C183.677 266.809 183.98 266.562 184.225 266.719L184.805 267.093C184.915 267.163 185.057 267.155 185.157 267.073L185.692 266.636C185.918 266.453 186.246 266.664 186.172 266.945L185.996 267.613C185.963 267.739 186.014 267.871 186.124 267.942L186.704 268.316C186.949 268.473 186.849 268.851 186.559 268.867L185.869 268.906C185.739 268.914 185.629 269.004 185.596 269.129L185.42 269.797C185.346 270.078 184.955 270.1 184.85 269.829L184.6 269.185C184.553 269.064 184.433 268.987 184.304 268.994L183.614 269.033C183.324 269.049 183.182 268.685 183.408 268.501L183.943 268.064C184.043 267.982 184.08 267.845 184.033 267.723L183.783 267.08Z" fill="#717A7C"/>
<path d="M185.877 271.878C186.027 272.127 185.772 272.423 185.504 272.31L184.867 272.043C184.747 271.993 184.609 272.025 184.524 272.123L184.073 272.646C183.883 272.866 183.522 272.715 183.547 272.425L183.604 271.737C183.615 271.608 183.541 271.486 183.421 271.436L182.785 271.168C182.517 271.056 182.549 270.666 182.832 270.6L183.504 270.442C183.631 270.412 183.724 270.304 183.735 270.175L183.792 269.486C183.817 269.197 184.197 269.107 184.348 269.356L184.706 269.947C184.773 270.058 184.904 270.113 185.031 270.083L185.703 269.925C185.986 269.859 186.189 270.193 185.999 270.413L185.548 270.936C185.463 271.035 185.451 271.176 185.519 271.288L185.877 271.878Z" fill="#717A7C"/>
<path d="M263.46 144.105C263.186 144.201 262.949 143.89 263.115 143.651L263.509 143.084C263.583 142.977 263.58 142.835 263.501 142.731L263.084 142.181C262.908 141.95 263.131 141.629 263.409 141.713L264.07 141.912C264.195 141.95 264.329 141.903 264.403 141.796L264.797 141.229C264.963 140.99 265.337 141.103 265.344 141.393L265.358 142.084C265.361 142.214 265.447 142.327 265.572 142.365L266.233 142.564C266.511 142.648 266.519 143.039 266.245 143.135L265.593 143.362C265.47 143.405 265.389 143.522 265.392 143.652L265.406 144.342C265.413 144.633 265.043 144.761 264.868 144.53L264.45 143.98C264.371 143.876 264.235 143.835 264.112 143.878L263.46 144.105Z" fill="#717A7C"/>
<path d="M51.2173 154.196C50.9412 154.286 50.7102 153.971 50.8801 153.735L51.2839 153.175C51.3599 153.069 51.3593 152.927 51.2825 152.822L50.8745 152.265C50.7028 152.031 50.9314 151.713 51.2081 151.802L51.8657 152.013C51.9895 152.053 52.1247 152.008 52.2007 151.903L52.6045 151.343C52.7744 151.107 53.1467 151.226 53.1479 151.517L53.1505 152.207C53.151 152.337 53.2351 152.452 53.3589 152.492L54.0165 152.703C54.2932 152.792 54.2947 153.183 54.0187 153.273L53.3627 153.489C53.2393 153.53 53.156 153.645 53.1565 153.775L53.1592 154.466C53.1603 154.757 52.7889 154.879 52.6171 154.644L52.2091 154.087C52.1323 153.982 51.9967 153.939 51.8733 153.98L51.2173 154.196Z" fill="#717A7C"/>
<path d="M83.1821 85.7731C83.4723 85.7568 83.6138 86.1213 83.3887 86.305L82.8537 86.7417C82.753 86.8239 82.7166 86.9615 82.7637 87.0827L83.0136 87.7265C83.1188 87.9974 82.8159 88.2446 82.5716 88.0873L81.9909 87.7134C81.8817 87.643 81.7395 87.651 81.6388 87.7332L81.1038 88.1698C80.8787 88.3536 80.5499 88.1419 80.624 87.8609L80.8002 87.1931C80.8334 87.0675 80.7818 86.9348 80.6726 86.8644L80.092 86.4905C79.8476 86.3331 79.9474 85.9551 80.2375 85.9387L80.927 85.8999C81.0568 85.8926 81.1671 85.8026 81.2003 85.677L81.3764 85.0092C81.4506 84.7282 81.841 84.7063 81.9462 84.9772L82.1961 85.6209C82.2432 85.7421 82.3629 85.8192 82.4926 85.8119L83.1821 85.7731Z" fill="#717A7C"/>
<path d="M104.111 278.588C104.312 278.378 104.664 278.548 104.625 278.836L104.531 279.521C104.514 279.649 104.581 279.775 104.698 279.831L105.32 280.132C105.582 280.258 105.529 280.646 105.243 280.697L104.563 280.82C104.435 280.843 104.337 280.945 104.319 281.074L104.226 281.758C104.186 282.046 103.801 282.116 103.664 281.86L103.337 281.251C103.276 281.137 103.148 281.075 103.02 281.098L102.34 281.22C102.054 281.272 101.869 280.927 102.07 280.718L102.548 280.219C102.638 280.125 102.657 279.984 102.596 279.869L102.269 279.261C102.132 279.005 102.403 278.723 102.664 278.849L103.286 279.149C103.403 279.206 103.543 279.181 103.633 279.087L104.111 278.588Z" fill="#717A7C"/>
<path d="M271.85 44.9254C272.138 44.9648 272.208 45.3496 271.952 45.487L270.076 46.4933C269.962 46.5548 269.9 46.683 269.923 46.8109L270.301 48.9053C270.352 49.1913 270.008 49.3762 269.798 49.1751L268.261 47.7027C268.167 47.6127 268.026 47.5935 267.912 47.6549L266.037 48.6612C265.781 48.7986 265.498 48.5281 265.625 48.2664L266.55 46.3501C266.607 46.233 266.581 46.0929 266.488 46.003L264.951 44.5305C264.741 44.3294 264.911 43.9773 265.199 44.0167L267.308 44.3048C267.437 44.3224 267.562 44.255 267.619 44.138L268.544 42.2217C268.671 41.96 269.058 42.0129 269.11 42.2989L269.487 44.3933C269.51 44.5212 269.613 44.6197 269.742 44.6373L271.85 44.9254Z" fill="#717A7C"/>
<path d="M241.24 98.8661C240.991 99.0168 240.695 98.7614 240.807 98.4934L241.631 96.5313C241.682 96.4114 241.649 96.2728 241.551 96.1879L239.939 94.7979C239.719 94.6081 239.871 94.2475 240.16 94.2718L242.281 94.4491C242.411 94.46 242.532 94.3862 242.583 94.2663L243.407 92.3042C243.519 92.0362 243.909 92.0688 243.975 92.3517L244.462 94.4235C244.492 94.55 244.6 94.643 244.729 94.6538L246.85 94.8312C247.139 94.8554 247.229 95.2361 246.98 95.3867L245.16 96.4898C245.049 96.5572 244.994 96.6884 245.024 96.8149L245.51 98.8867C245.577 99.1696 245.243 99.3723 245.022 99.1825L243.411 97.7925C243.313 97.7076 243.171 97.6957 243.06 97.7631L241.24 98.8661Z" fill="#717A7C"/>
<path d="M74.0661 25.0001C74.3547 25.0344 74.4308 25.4179 74.1772 25.5598L72.3198 26.5987C72.2064 26.6621 72.1467 26.7914 72.172 26.9189L72.5861 29.0064C72.6426 29.2914 72.3013 29.4823 72.088 29.2849L70.526 27.8395C70.4306 27.7512 70.2893 27.7344 70.1758 27.7979L68.3184 28.8367C68.0648 28.9786 67.7778 28.713 67.8996 28.4492L68.7916 26.517C68.8461 26.399 68.8184 26.2593 68.723 26.171L67.161 24.7256C66.9477 24.5282 67.1116 24.1732 67.4002 24.2075L69.5135 24.4588C69.6425 24.4741 69.7668 24.4046 69.8213 24.2866L70.7133 22.3544C70.8351 22.0905 71.2234 22.1367 71.2799 22.4218L71.694 24.5093C71.7193 24.6367 71.8238 24.7335 71.9528 24.7488L74.0661 25.0001Z" fill="#717A7C"/>
<path d="M80.6267 31.1754C80.9153 31.2097 80.9914 31.5932 80.7377 31.7351L78.8803 32.774C78.7669 32.8374 78.7072 32.9667 78.7325 33.0942L79.1466 35.1817C79.2031 35.4667 78.8619 35.6576 78.6486 35.4602L77.0866 34.0148C76.9912 33.9265 76.8498 33.9097 76.7364 33.9732L74.879 35.012C74.6254 35.1539 74.3384 34.8883 74.4602 34.6245L75.3522 32.6923C75.4067 32.5743 75.379 32.4346 75.2836 32.3463L73.7216 30.9009C73.5083 30.7035 73.6722 30.3485 73.9607 30.3828L76.074 30.6341C76.2031 30.6494 76.3273 30.5799 76.3818 30.4619L77.2738 28.5297C77.3956 28.2658 77.7839 28.312 77.8405 28.5971L78.2545 30.6846C78.2798 30.812 78.3843 30.9087 78.5134 30.9241L80.6267 31.1754Z" fill="#717A7C"/>
<path d="M86.5902 99.8735C86.4226 99.636 86.6567 99.3229 86.9318 99.4164L87.7306 99.688C87.8537 99.7299 87.9897 99.6877 88.0675 99.5836L88.5726 98.9079C88.7466 98.6751 89.1168 98.801 89.1129 99.0916L89.1014 99.9352C89.0996 100.065 89.1817 100.181 89.3048 100.223L90.1036 100.495C90.3787 100.589 90.3734 100.979 90.0958 101.066L89.2899 101.315C89.1658 101.354 89.0805 101.468 89.0788 101.598L89.0673 102.441C89.0633 102.732 88.6898 102.848 88.5222 102.61L88.0356 101.921C87.9607 101.815 87.8259 101.769 87.7017 101.808L86.8959 102.057C86.6183 102.143 86.3928 101.824 86.5668 101.591L87.0719 100.915C87.1498 100.811 87.1517 100.669 87.0767 100.563L86.5902 99.8735Z" fill="#717A7C"/>
<path d="M247.148 156.308C246.899 156.458 246.603 156.203 246.716 155.935L247.54 153.973C247.59 153.853 247.557 153.714 247.459 153.629L245.848 152.239C245.627 152.049 245.779 151.689 246.068 151.713L248.189 151.891C248.319 151.901 248.441 151.828 248.491 151.708L249.315 149.746C249.427 149.478 249.817 149.51 249.884 149.793L250.37 151.865C250.4 151.991 250.508 152.084 250.637 152.095L252.758 152.273C253.048 152.297 253.137 152.677 252.889 152.828L251.069 153.931C250.957 153.999 250.902 154.13 250.932 154.256L251.419 156.328C251.485 156.611 251.151 156.814 250.931 156.624L249.319 155.234C249.221 155.149 249.079 155.137 248.968 155.204L247.148 156.308Z" fill="#717A7C"/>
<path d="M270.277 115.158C270.316 114.87 270.701 114.801 270.838 115.057L271.237 115.8C271.299 115.915 271.427 115.976 271.555 115.953L272.385 115.804C272.671 115.752 272.856 116.097 272.655 116.307L272.071 116.916C271.981 117.01 271.962 117.151 272.023 117.265L272.422 118.009C272.56 118.265 272.289 118.547 272.027 118.421L271.268 118.054C271.151 117.997 271.011 118.022 270.921 118.116L270.337 118.725C270.136 118.935 269.784 118.765 269.823 118.477L269.937 117.641C269.955 117.512 269.888 117.387 269.771 117.33L269.011 116.963C268.749 116.837 268.802 116.45 269.088 116.398L269.918 116.248C270.046 116.225 270.145 116.123 270.162 115.994L270.277 115.158Z" fill="#717A7C"/>
<path d="M160.239 258.922C160.243 258.631 160.616 258.516 160.784 258.753L162.011 260.492C162.086 260.598 162.221 260.644 162.345 260.605L164.378 259.975C164.656 259.889 164.881 260.208 164.707 260.441L163.433 262.146C163.355 262.25 163.353 262.392 163.428 262.498L164.655 264.237C164.823 264.474 164.589 264.788 164.314 264.694L162.299 264.009C162.176 263.967 162.04 264.009 161.962 264.113L160.688 265.818C160.514 266.051 160.143 265.925 160.147 265.634L160.176 263.506C160.178 263.376 160.096 263.26 159.973 263.218L157.958 262.533C157.683 262.439 157.688 262.048 157.966 261.962L159.999 261.332C160.123 261.294 160.208 261.18 160.21 261.05L160.239 258.922Z" fill="#717A7C"/>
<path d="M1.68681 57.0346C1.75327 57.3175 1.41887 57.5202 1.19881 57.3303L0.559952 56.7793C0.461538 56.6944 0.319654 56.6825 0.208507 56.7499L-0.513006 57.1872C-0.761537 57.3378 -1.05763 57.0824 -0.945099 56.8145L-0.618423 56.0366C-0.568099 55.9168 -0.600659 55.7782 -0.699073 55.6933L-1.33793 55.1422C-1.55799 54.9524 -1.40659 54.5919 -1.11698 54.6161L-0.276225 54.6864C-0.14671 54.6972 -0.0249494 54.6234 0.0253742 54.5036L0.352051 53.7257C0.464579 53.4578 0.854241 53.4904 0.9207 53.7733L1.11364 54.5946C1.14336 54.7211 1.25117 54.8141 1.38069 54.825L2.22144 54.8953C2.51105 54.9195 2.60047 55.3001 2.35194 55.4508L1.63042 55.8881C1.51928 55.9554 1.46415 56.0867 1.49387 56.2132L1.68681 57.0346Z" fill="#717A7C"/>
<path d="M101.233 282.19C101.13 282.461 100.74 282.442 100.663 282.162L100.105 280.108C100.07 279.983 99.9595 279.894 99.8297 279.888L97.704 279.784C97.4137 279.77 97.3111 279.393 97.5542 279.234L99.3346 278.068C99.4433 277.997 99.4938 277.864 99.4597 277.738L98.901 275.685C98.8247 275.404 99.1519 275.19 99.3784 275.372L101.037 276.705C101.139 276.786 101.281 276.793 101.39 276.722L103.17 275.556C103.413 275.397 103.718 275.642 103.615 275.914L102.86 277.903C102.814 278.025 102.851 278.162 102.952 278.244L104.611 279.576C104.838 279.759 104.699 280.124 104.409 280.11L102.283 280.007C102.154 280 102.034 280.078 101.988 280.2L101.233 282.19Z" fill="#717A7C"/>
<path d="M120.777 134.226C120.976 134.438 120.788 134.781 120.503 134.726L118.412 134.328C118.284 134.304 118.156 134.365 118.093 134.478L117.068 136.344C116.928 136.598 116.544 136.525 116.508 136.237L116.24 134.126C116.224 133.997 116.126 133.893 115.999 133.869L113.908 133.471C113.623 133.416 113.574 133.028 113.836 132.905L115.762 131.998C115.879 131.942 115.948 131.818 115.932 131.689L115.664 129.577C115.628 129.289 115.981 129.122 116.18 129.334L117.638 130.885C117.727 130.98 117.867 131.006 117.984 130.951L119.91 130.044C120.172 129.92 120.44 130.205 120.3 130.46L119.276 132.325C119.213 132.439 119.231 132.581 119.32 132.675L120.777 134.226Z" fill="#717A7C"/>
<path d="M170.246 241.342C169.96 241.288 169.911 240.9 170.174 240.776L172.099 239.869C172.217 239.814 172.286 239.689 172.269 239.56L172.002 237.449C171.965 237.16 172.319 236.994 172.518 237.205L173.975 238.756C174.064 238.851 174.204 238.878 174.322 238.822L176.247 237.916C176.51 237.792 176.778 238.077 176.638 238.331L175.613 240.197C175.551 240.311 175.569 240.452 175.658 240.547L177.115 242.097C177.314 242.309 177.126 242.652 176.84 242.598L174.75 242.199C174.622 242.175 174.493 242.236 174.431 242.35L173.406 244.215C173.266 244.47 172.882 244.397 172.845 244.108L172.578 241.997C172.562 241.868 172.464 241.764 172.336 241.74L170.246 241.342Z" fill="#717A7C"/>
<path d="M173.843 95.1725C173.61 94.9985 173.736 94.6283 174.026 94.6323L176.154 94.6613C176.284 94.663 176.401 94.5809 176.442 94.4579L177.127 92.443C177.221 92.1679 177.612 92.1732 177.698 92.4508L178.328 94.4836C178.367 94.6077 178.481 94.693 178.611 94.6947L180.739 94.7237C181.029 94.7277 181.145 95.1012 180.907 95.2688L179.169 96.4961C179.063 96.5711 179.017 96.7059 179.055 96.83L179.685 98.8628C179.771 99.1404 179.452 99.3659 179.219 99.1919L177.515 97.9176C177.411 97.8398 177.268 97.8379 177.162 97.9128L175.423 99.1402C175.186 99.3078 174.873 99.0737 174.966 98.7985L175.651 96.7836C175.693 96.6606 175.651 96.5246 175.547 96.4468L173.843 95.1725Z" fill="#717A7C"/>
<path d="M253.098 23.7501C253.366 23.8627 253.333 24.2523 253.05 24.3188L250.979 24.8055C250.852 24.8352 250.759 24.943 250.748 25.0725L250.571 27.1933C250.547 27.4829 250.166 27.5723 250.015 27.3238L248.912 25.5038C248.845 25.3926 248.714 25.3375 248.587 25.3672L246.515 25.8539C246.232 25.9204 246.03 25.586 246.22 25.3659L247.61 23.7544C247.695 23.656 247.706 23.5141 247.639 23.403L246.536 21.583C246.385 21.3345 246.641 21.0384 246.909 21.1509L248.871 21.9749C248.991 22.0252 249.129 21.9927 249.214 21.8943L250.604 20.2828C250.794 20.0627 251.155 20.2141 251.13 20.5037L250.953 22.6245C250.942 22.754 251.016 22.8758 251.136 22.9261L253.098 23.7501Z" fill="#717A7C"/>
<path d="M151.314 203.527C151.573 203.394 151.85 203.669 151.72 203.929L150.761 205.829C150.702 205.945 150.725 206.085 150.817 206.177L152.328 207.676C152.534 207.881 152.358 208.23 152.071 208.185L149.967 207.861C149.839 207.841 149.712 207.906 149.654 208.022L148.695 209.922C148.564 210.181 148.178 210.121 148.131 209.835L147.79 207.734C147.769 207.606 147.668 207.505 147.54 207.486L145.436 207.161C145.149 207.116 145.087 206.73 145.345 206.597L147.237 205.624C147.353 205.565 147.417 205.437 147.396 205.309L147.055 203.208C147.009 202.922 147.357 202.743 147.563 202.947L149.073 204.446C149.166 204.538 149.306 204.56 149.422 204.5L151.314 203.527Z" fill="#717A7C"/>
<path d="M41.3008 205.606C41.4998 205.818 41.3115 206.16 41.0261 206.106L38.9354 205.708C38.8078 205.684 38.679 205.744 38.6164 205.858L37.5918 207.724C37.4519 207.978 37.0677 207.905 37.0312 207.617L36.7638 205.506C36.7474 205.377 36.6499 205.273 36.5222 205.249L34.4316 204.851C34.1461 204.796 34.097 204.408 34.3599 204.284L36.2852 203.378C36.4028 203.322 36.4714 203.197 36.455 203.069L36.1876 200.957C36.1511 200.669 36.5048 200.502 36.7038 200.714L38.1612 202.265C38.2502 202.36 38.3901 202.386 38.5076 202.331L40.433 201.424C40.6959 201.3 40.9636 201.585 40.8237 201.84L39.7991 203.705C39.7365 203.819 39.7544 203.96 39.8434 204.055L41.3008 205.606Z" fill="#717A7C"/>
<path d="M213.621 109.235C213.441 109.007 213.659 108.682 213.938 108.761L215.986 109.339C216.111 109.375 216.245 109.325 216.317 109.217L217.501 107.449C217.662 107.207 218.038 107.313 218.05 107.604L218.132 109.73C218.137 109.86 218.225 109.972 218.35 110.007L220.398 110.586C220.678 110.665 220.693 111.056 220.42 111.156L218.423 111.892C218.301 111.937 218.222 112.055 218.227 112.185L218.31 114.312C218.321 114.602 217.954 114.737 217.774 114.509L216.458 112.837C216.377 112.735 216.24 112.696 216.118 112.741L214.121 113.476C213.848 113.577 213.607 113.27 213.768 113.028L214.951 111.259C215.024 111.151 215.018 111.009 214.938 110.907L213.621 109.235Z" fill="#717A7C"/>
<path d="M262.192 246.391C262.473 246.465 262.495 246.855 262.224 246.961L260.24 247.731C260.119 247.778 260.042 247.898 260.049 248.027L260.169 250.152C260.185 250.442 259.821 250.584 259.637 250.359L258.291 248.71C258.209 248.609 258.071 248.573 257.95 248.62L255.966 249.39C255.695 249.496 255.448 249.193 255.605 248.948L256.758 247.159C256.828 247.05 256.82 246.908 256.738 246.807L255.392 245.158C255.209 244.933 255.42 244.604 255.701 244.678L257.759 245.221C257.885 245.254 258.017 245.203 258.088 245.094L259.24 243.304C259.397 243.06 259.775 243.16 259.792 243.45L259.911 245.575C259.919 245.705 260.009 245.815 260.134 245.848L262.192 246.391Z" fill="#717A7C"/>
<path d="M163.365 207.556C163.229 207.813 162.844 207.747 162.803 207.459L162.498 205.353C162.48 205.224 162.38 205.122 162.252 205.1L160.155 204.739C159.869 204.689 159.813 204.302 160.074 204.174L161.983 203.234C162.099 203.176 162.166 203.05 162.147 202.922L161.843 200.815C161.801 200.528 162.152 200.355 162.355 200.563L163.839 202.088C163.93 202.181 164.07 202.206 164.186 202.148L166.096 201.208C166.356 201.08 166.629 201.36 166.494 201.617L165.502 203.5C165.441 203.615 165.462 203.756 165.552 203.849L167.036 205.374C167.239 205.582 167.057 205.928 166.77 205.879L164.673 205.517C164.545 205.495 164.417 205.558 164.357 205.673L163.365 207.556Z" fill="#717A7C"/>
<path d="M101.264 155.829C101.212 156.115 101.557 156.3 101.767 156.099L103.303 154.626C103.397 154.536 103.538 154.517 103.652 154.578L105.528 155.585C105.784 155.722 106.066 155.452 105.94 155.19L105.014 153.274C104.958 153.157 104.983 153.016 105.077 152.926L106.613 151.454C106.823 151.253 106.653 150.901 106.365 150.94L104.256 151.228C104.128 151.246 104.002 151.179 103.946 151.061L103.02 149.145C102.894 148.883 102.506 148.936 102.455 149.222L102.077 151.317C102.054 151.445 101.951 151.543 101.823 151.561L99.7139 151.849C99.426 151.888 99.3566 152.273 99.6127 152.411L101.488 153.417C101.602 153.478 101.664 153.606 101.641 153.734L101.264 155.829Z" fill="#717A7C"/>
<path d="M160.454 238.808C160.704 238.66 160.618 238.278 160.328 238.252L158.209 238.058C158.079 238.046 157.972 237.953 157.944 237.826L157.473 235.75C157.409 235.467 157.019 235.431 156.905 235.698L156.065 237.654C156.014 237.774 155.892 237.847 155.763 237.835L153.643 237.641C153.354 237.615 153.2 237.974 153.418 238.166L155.019 239.568C155.117 239.654 155.148 239.792 155.097 239.912L154.258 241.868C154.143 242.135 154.437 242.392 154.687 242.244L156.516 241.155C156.627 241.088 156.769 241.101 156.867 241.187L158.468 242.589C158.686 242.781 159.022 242.58 158.958 242.297L158.487 240.222C158.458 240.095 158.514 239.964 158.626 239.897L160.454 238.808Z" fill="#717A7C"/>
<path d="M194.19 95.8904C194.312 96.1543 194.7 96.1081 194.757 95.8231L195.171 93.7356C195.196 93.6081 195.3 93.5114 195.429 93.496L197.543 93.2448C197.831 93.2105 197.907 92.8269 197.654 92.685L195.796 91.6462C195.683 91.5827 195.623 91.4534 195.649 91.326L196.063 89.2385C196.119 88.9534 195.778 88.7625 195.565 88.9599L194.003 90.4053C193.907 90.4936 193.766 90.5104 193.652 90.447L191.795 89.4081C191.541 89.2662 191.254 89.5318 191.376 89.7957L192.268 91.7279C192.323 91.8459 192.295 91.9855 192.2 92.0738L190.638 93.5192C190.424 93.7166 190.588 94.0716 190.877 94.0373L192.99 93.7861C193.119 93.7707 193.243 93.8402 193.298 93.9582L194.19 95.8904Z" fill="#717A7C"/>
<path d="M109.912 28.7526C110.121 28.9553 110.467 28.773 110.417 28.4866L110.056 26.3894C110.034 26.2613 110.097 26.1336 110.212 26.073L112.094 25.0811C112.352 24.9456 112.285 24.5603 111.998 24.5188L109.891 24.2145C109.763 24.1959 109.661 24.0966 109.638 23.9685L109.277 21.8713C109.228 21.5849 108.841 21.529 108.712 21.7897L107.772 23.6989C107.714 23.8155 107.589 23.8819 107.46 23.8633L105.354 23.559C105.066 23.5175 104.893 23.8683 105.101 24.071L106.627 25.5552C106.72 25.6458 106.744 25.7861 106.687 25.9027L105.746 27.8119C105.618 28.0726 105.898 28.3453 106.155 28.2099L108.038 27.218C108.153 27.1574 108.294 27.1777 108.387 27.2684L109.912 28.7526Z" fill="#717A7C"/>
<path d="M115.693 46.7034C115.509 46.9285 115.721 47.2573 116.002 47.1832L116.833 46.9639C116.959 46.9307 117.092 46.9822 117.162 47.0915L117.627 47.8142C117.785 48.0586 118.163 47.9588 118.179 47.6687L118.227 46.8104C118.235 46.6806 118.325 46.5703 118.45 46.5372L119.282 46.3179C119.563 46.2437 119.585 45.8533 119.314 45.7481L118.512 45.437C118.391 45.3899 118.314 45.2702 118.321 45.1405L118.37 44.2822C118.386 43.992 118.021 43.8505 117.838 44.0757L117.294 44.7416C117.212 44.8423 117.074 44.8787 116.953 44.8316L116.152 44.5205C115.881 44.4153 115.634 44.7182 115.791 44.9626L116.256 45.6853C116.327 45.7946 116.319 45.9367 116.237 46.0374L115.693 46.7034Z" fill="#717A7C"/>
<path d="M31.2363 86.9642C31.5267 86.9754 31.6618 86.6085 31.4335 86.4287L30.7581 85.8969C30.656 85.8165 30.6173 85.6794 30.6622 85.5575L30.9593 84.7508C31.0597 84.4781 30.7525 84.2362 30.511 84.3978L29.7965 84.8758C29.6885 84.948 29.5462 84.9425 29.4441 84.8621L28.7687 84.3303C28.5404 84.1505 28.2154 84.3679 28.2944 84.6475L28.5282 85.4748C28.5635 85.5998 28.5143 85.7335 28.4063 85.8057L27.6918 86.2837C27.4502 86.4453 27.5566 86.8216 27.847 86.8328L28.706 86.8661C28.8358 86.8711 28.9477 86.9592 28.983 87.0843L29.2168 87.9115C29.2959 88.1912 29.6866 88.2063 29.787 87.9336L30.0841 87.127C30.1291 87.005 30.2474 86.9258 30.3773 86.9309L31.2363 86.9642Z" fill="#717A7C"/>
<path d="M105.983 125.041C105.693 125.06 105.597 125.439 105.843 125.594L107.643 126.729C107.753 126.798 107.806 126.931 107.774 127.057L107.251 129.12C107.18 129.401 107.511 129.61 107.734 129.424L109.37 128.062C109.469 127.979 109.612 127.97 109.721 128.039L111.522 129.173C111.768 129.328 112.068 129.078 111.96 128.808L111.171 126.832C111.123 126.711 111.158 126.573 111.257 126.49L112.893 125.129C113.116 124.943 112.971 124.579 112.681 124.599L110.558 124.739C110.428 124.748 110.308 124.672 110.259 124.551L109.47 122.575C109.362 122.305 108.972 122.331 108.9 122.612L108.377 124.675C108.346 124.801 108.236 124.892 108.106 124.901L105.983 125.041Z" fill="#717A7C"/>
<path d="M277.026 258.127C276.807 257.935 276.471 258.135 276.535 258.419L277.006 260.494C277.035 260.621 276.979 260.752 276.867 260.818L275.039 261.908C274.789 262.056 274.876 262.438 275.165 262.464L277.284 262.658C277.414 262.669 277.521 262.763 277.55 262.89L278.02 264.965C278.085 265.249 278.474 265.284 278.589 265.017L279.428 263.062C279.479 262.942 279.601 262.869 279.731 262.881L281.85 263.075C282.139 263.101 282.294 262.742 282.075 262.55L280.474 261.148C280.376 261.062 280.345 260.923 280.396 260.804L281.235 258.848C281.35 258.581 281.056 258.323 280.806 258.472L278.978 259.561C278.866 259.628 278.724 259.615 278.626 259.529L277.026 258.127Z" fill="#717A7C"/>
<path d="M166.654 88.3795C166.668 88.6698 167.045 88.7724 167.204 88.5293L168.37 86.7489C168.442 86.6402 168.575 86.5897 168.7 86.6238L170.754 87.1825C171.034 87.2588 171.248 86.9316 171.066 86.7051L169.733 85.0461C169.652 84.9447 169.645 84.8025 169.716 84.6938L170.882 82.9134C171.041 82.6703 170.796 82.3655 170.525 82.4686L168.535 83.2236C168.413 83.2697 168.276 83.2324 168.195 83.1311L166.862 81.472C166.68 81.2455 166.314 81.3842 166.328 81.6745L166.431 83.8002C166.438 83.93 166.36 84.0491 166.238 84.0952L164.248 84.8502C163.977 84.9533 163.996 85.3439 164.276 85.4202L166.33 85.9789C166.455 86.013 166.544 86.124 166.551 86.2538L166.654 88.3795Z" fill="#717A7C"/>
<path d="M8.23422 60.6467L7.74878 62.431L5.9018 62.5207L7.44876 63.5337L6.96332 65.318L8.40484 64.1598L9.9518 65.1729L9.29574 63.444L10.7373 62.2858L8.89027 62.3755L8.23422 60.6467Z" fill="#717A7C"/>
<path d="M81.3724 193.694L82.8139 192.536L84.3609 193.549L83.7048 191.82L85.1463 190.662L83.2993 190.752L82.6433 189.023L82.1578 190.807L80.3109 190.897L81.8578 191.91L81.3724 193.694Z" fill="#717A7C"/>
<path d="M277.254 250.502C277.378 250.239 277.093 249.971 276.838 250.111L274.973 251.135C274.859 251.198 274.718 251.18 274.623 251.091L273.072 249.634C272.86 249.435 272.518 249.623 272.572 249.908L272.97 251.999C272.994 252.127 272.934 252.256 272.82 252.318L270.955 253.343C270.7 253.483 270.773 253.867 271.061 253.903L273.173 254.171C273.302 254.187 273.405 254.285 273.43 254.412L273.828 256.503C273.882 256.788 274.27 256.837 274.394 256.575L275.301 254.649C275.356 254.532 275.481 254.463 275.61 254.479L277.721 254.747C278.009 254.783 278.176 254.43 277.964 254.231L276.413 252.773C276.319 252.684 276.292 252.544 276.347 252.427L277.254 250.502Z" fill="#717A7C"/>
<path d="M138.801 -2.20959C138.717 -2.48783 138.326 -2.49616 138.23 -2.22174L137.53 -0.21218C137.487 -0.0894563 137.37 -0.00823867 137.24 -0.0110049L135.112 -0.0563013C134.822 -0.0624869 134.693 0.306742 134.925 0.482528L136.619 1.7698C136.723 1.84841 136.764 1.98473 136.721 2.10745L136.02 4.11701C135.925 4.39143 136.236 4.62795 136.475 4.46217L138.223 3.24819C138.33 3.17405 138.472 3.17708 138.575 3.2557L140.27 4.54297C140.502 4.71875 140.823 4.4957 140.739 4.21746L140.124 2.17991C140.087 2.05547 140.134 1.92103 140.241 1.84689L141.988 0.632913C142.227 0.467135 142.114 0.0927626 141.824 0.0865771L139.696 0.0412807C139.566 0.0385145 139.453 -0.0476063 139.415 -0.17204L138.801 -2.20959Z" fill="#717A7C"/>
<path d="M208.891 247.432C209.054 247.192 208.815 246.883 208.541 246.981L206.539 247.701C206.416 247.745 206.28 247.706 206.2 247.603L204.896 245.921C204.718 245.691 204.35 245.823 204.359 246.114L204.425 248.241C204.429 248.371 204.349 248.489 204.227 248.533L202.224 249.253C201.951 249.351 201.963 249.742 202.242 249.823L204.286 250.418C204.41 250.454 204.498 250.567 204.502 250.696L204.568 252.824C204.577 253.114 204.952 253.223 205.116 252.983L206.313 251.223C206.386 251.116 206.52 251.068 206.644 251.104L208.688 251.698C208.967 251.779 209.187 251.456 209.009 251.226L207.705 249.544C207.625 249.442 207.621 249.299 207.694 249.192L208.891 247.432Z" fill="#717A7C"/>
<path d="M292.279 289.507C292.541 289.381 292.488 288.993 292.202 288.942L290.107 288.564C289.98 288.541 289.881 288.438 289.863 288.31L289.575 286.201C289.536 285.913 289.151 285.844 289.014 286.1L288.007 287.975C287.946 288.09 287.818 288.151 287.69 288.128L285.595 287.751C285.309 287.699 285.125 288.044 285.326 288.254L286.798 289.79C286.888 289.884 286.907 290.025 286.846 290.14L285.84 292.015C285.702 292.271 285.973 292.553 286.234 292.427L288.151 291.501C288.268 291.445 288.408 291.47 288.498 291.564L289.97 293.1C290.171 293.31 290.523 293.14 290.484 292.852L290.196 290.744C290.178 290.615 290.246 290.489 290.363 290.433L292.279 289.507Z" fill="#717A7C"/>
<path d="M77.4494 68.5861C77.1877 68.7125 77.2406 69.0999 77.5266 69.1514L79.6211 69.529C79.749 69.5521 79.8475 69.6549 79.8651 69.7837L80.1532 71.8922C80.1925 72.1802 80.5773 72.2496 80.7148 71.9935L81.7211 70.1183C81.7825 70.0037 81.9107 69.9418 82.0386 69.9649L84.133 70.3425C84.419 70.394 84.6039 70.0495 84.4029 69.8396L82.9304 68.3031C82.8405 68.2093 82.8212 68.0682 82.8826 67.9537L83.889 66.0785C84.0264 65.8224 83.7558 65.5401 83.4941 65.6665L81.5778 66.5921C81.4608 66.6486 81.3206 66.6233 81.2307 66.5295L79.7582 64.993C79.5572 64.7831 79.2051 64.9532 79.2444 65.2411L79.5325 67.3497C79.5501 67.4785 79.4828 67.6039 79.3657 67.6605L77.4494 68.5861Z" fill="#717A7C"/>
<path d="M190.237 166.099C190.527 166.12 190.675 165.758 190.453 165.571L188.828 164.197C188.728 164.113 188.695 163.974 188.744 163.854L189.549 161.884C189.658 161.615 189.36 161.362 189.113 161.515L187.304 162.636C187.193 162.705 187.051 162.694 186.952 162.61L185.327 161.236C185.105 161.048 184.773 161.254 184.842 161.537L185.349 163.604C185.38 163.73 185.326 163.862 185.215 163.93L183.406 165.051C183.159 165.204 183.252 165.584 183.542 165.605L185.665 165.762C185.794 165.771 185.903 165.863 185.934 165.989L186.441 168.056C186.51 168.339 186.9 168.367 187.01 168.098L187.815 166.128C187.864 166.008 187.985 165.933 188.115 165.942L190.237 166.099Z" fill="#717A7C"/>
<path d="M115.328 249.345C115.618 249.341 115.734 248.968 115.497 248.8L113.758 247.573C113.652 247.498 113.606 247.363 113.645 247.239L114.275 245.206C114.361 244.929 114.041 244.703 113.808 244.877L112.104 246.151C112 246.229 111.858 246.231 111.751 246.156L110.013 244.929C109.775 244.761 109.462 244.995 109.556 245.271L110.241 247.285C110.283 247.409 110.241 247.544 110.136 247.622L108.432 248.897C108.199 249.071 108.325 249.441 108.616 249.437L110.744 249.408C110.874 249.406 110.99 249.488 111.032 249.611L111.717 251.626C111.81 251.901 112.201 251.896 112.287 251.618L112.917 249.586C112.956 249.461 113.07 249.376 113.2 249.374L115.328 249.345Z" fill="#717A7C"/>
<path d="M147.574 -0.781808C147.348 -0.965563 147.02 -0.753856 147.094 -0.472855L147.637 1.5849C147.67 1.71057 147.618 1.84329 147.509 1.91366L145.72 3.0659C145.475 3.22324 145.575 3.60133 145.865 3.61765L147.99 3.73717C148.12 3.74447 148.23 3.8345 148.263 3.96016L148.806 6.01792C148.88 6.29892 149.271 6.32088 149.376 6.04997L150.146 4.06608C150.193 3.94493 150.313 3.86784 150.443 3.87514L152.568 3.99466C152.858 4.01099 152.999 3.64647 152.774 3.46272L151.125 2.11709C151.025 2.03491 150.988 1.89724 151.035 1.77609L151.806 -0.207798C151.911 -0.478711 151.608 -0.725953 151.364 -0.568606L149.574 0.583631C149.465 0.653998 149.323 0.646002 149.222 0.563824L147.574 -0.781808Z" fill="#717A7C"/>
<path d="M67.8214 114.385C68.109 114.427 68.2818 114.076 68.0735 113.874L66.5483 112.389C66.4552 112.299 66.431 112.158 66.4884 112.042L67.4287 110.133C67.5571 109.872 67.2768 109.599 67.0197 109.735L65.1368 110.727C65.0218 110.787 64.8809 110.767 64.7878 110.676L63.2626 109.192C63.0543 108.989 62.7083 109.171 62.7577 109.458L63.1192 111.555C63.1413 111.683 63.0784 111.811 62.9634 111.871L61.0805 112.863C60.8234 112.999 60.8898 113.384 61.1775 113.426L63.2838 113.73C63.4124 113.749 63.5144 113.848 63.5365 113.976L63.898 116.073C63.9474 116.36 64.3344 116.415 64.4628 116.155L65.4031 114.246C65.4605 114.129 65.5865 114.063 65.7151 114.081L67.8214 114.385Z" fill="#717A7C"/>
<path d="M90.4361 244.739C90.3007 244.482 89.9153 244.548 89.8738 244.836L89.7297 245.834C89.7111 245.962 89.6118 246.064 89.4837 246.086L88.4904 246.258C88.2041 246.307 88.1482 246.694 88.4089 246.822L89.3131 247.268C89.4297 247.325 89.496 247.451 89.4775 247.58L89.3334 248.577C89.2918 248.865 89.6426 249.038 89.8453 248.829L90.5482 248.107C90.6389 248.014 90.7792 247.99 90.8958 248.047L91.8 248.492C92.0607 248.621 92.3334 248.341 92.1979 248.083L91.7282 247.192C91.6676 247.077 91.6879 246.936 91.7786 246.843L92.4815 246.12C92.6842 245.912 92.5019 245.566 92.2156 245.615L91.2223 245.787C91.0942 245.809 90.9665 245.746 90.9059 245.631L90.4361 244.739Z" fill="#717A7C"/>
<path d="M106.626 30.5701C106.894 30.4576 106.861 30.0679 106.578 30.0014L105.597 29.7709C105.471 29.7412 105.378 29.6334 105.367 29.5039L105.283 28.4995C105.258 28.2099 104.878 28.1204 104.727 28.369L104.205 29.2309C104.137 29.3421 104.006 29.3972 103.88 29.3675L102.898 29.137C102.615 29.0705 102.413 29.4049 102.603 29.625L103.261 30.3882C103.346 30.4866 103.358 30.6285 103.29 30.7397L102.768 31.6016C102.617 31.8502 102.873 32.1462 103.141 32.0337L104.07 31.6435C104.19 31.5931 104.328 31.6257 104.413 31.7241L105.072 32.4873C105.261 32.7074 105.622 32.556 105.598 32.2664L105.514 31.262C105.503 31.1324 105.577 31.0107 105.697 30.9604L106.626 30.5701Z" fill="#717A7C"/>
<path d="M275.113 197.324C275.333 197.134 275.181 196.774 274.892 196.798L274.204 196.855C274.074 196.866 273.952 196.793 273.902 196.673L273.635 196.036C273.522 195.768 273.132 195.801 273.066 196.084L272.908 196.756C272.878 196.882 272.77 196.975 272.641 196.986L271.953 197.044C271.663 197.068 271.574 197.449 271.822 197.599L272.413 197.957C272.524 198.025 272.579 198.156 272.549 198.282L272.391 198.955C272.325 199.238 272.659 199.44 272.879 199.25L273.402 198.799C273.501 198.714 273.643 198.703 273.754 198.77L274.344 199.128C274.593 199.279 274.889 199.023 274.776 198.755L274.509 198.118C274.459 197.999 274.491 197.86 274.59 197.775L275.113 197.324Z" fill="#717A7C"/>
<path d="M248.15 0.568023C248.401 0.714295 248.692 0.453765 248.575 0.187822L248.297 -0.444136C248.244 -0.563069 248.275 -0.702222 248.371 -0.788817L248.886 -1.24894C249.103 -1.44257 248.945 -1.8004 248.656 -1.77113L247.969 -1.70157C247.84 -1.68848 247.717 -1.76015 247.664 -1.87908L247.386 -2.51104C247.269 -2.77698 246.88 -2.7376 246.818 -2.45356L246.672 -1.77862C246.645 -1.6516 246.538 -1.55673 246.409 -1.54364L245.722 -1.47409C245.433 -1.44482 245.35 -1.06266 245.601 -0.916384L246.198 -0.568799C246.31 -0.503385 246.368 -0.373094 246.34 -0.246071L246.194 0.428874C246.133 0.712907 246.47 0.909714 246.687 0.716082L247.202 0.255957C247.299 0.169362 247.441 0.155023 247.553 0.220438L248.15 0.568023Z" fill="#717A7C"/>
<path d="M258.672 146.929C258.775 147.201 259.166 147.182 259.242 146.902L259.423 146.235C259.458 146.11 259.569 146.021 259.698 146.014L260.388 145.981C260.678 145.967 260.781 145.589 260.538 145.43L259.96 145.052C259.852 144.981 259.801 144.848 259.835 144.722L260.016 144.056C260.093 143.775 259.766 143.561 259.539 143.743L259.001 144.176C258.899 144.257 258.757 144.264 258.648 144.193L258.071 143.814C257.828 143.655 257.523 143.9 257.626 144.172L257.871 144.818C257.917 144.939 257.88 145.076 257.778 145.158L257.24 145.59C257.013 145.772 257.152 146.138 257.442 146.124L258.132 146.09C258.262 146.084 258.381 146.162 258.427 146.284L258.672 146.929Z" fill="#717A7C"/>
<path d="M249.034 264.986C248.982 265.272 249.327 265.457 249.537 265.256L250.035 264.778C250.129 264.689 250.27 264.669 250.385 264.731L250.993 265.057C251.249 265.195 251.532 264.924 251.405 264.662L251.105 264.041C251.048 263.924 251.074 263.783 251.167 263.694L251.666 263.216C251.876 263.015 251.706 262.663 251.418 262.702L250.734 262.795C250.605 262.813 250.479 262.746 250.423 262.629L250.123 262.007C249.996 261.745 249.609 261.798 249.557 262.084L249.435 262.764C249.412 262.892 249.309 262.99 249.18 263.008L248.496 263.101C248.208 263.14 248.138 263.525 248.395 263.663L249.003 263.989C249.118 264.051 249.179 264.179 249.156 264.307L249.034 264.986Z" fill="#717A7C"/>
<path d="M93.1883 170.495C93.3559 170.258 93.1218 169.945 92.8467 170.038L92.1928 170.261C92.0698 170.302 91.9338 170.26 91.856 170.156L91.4425 169.603C91.2685 169.37 90.8983 169.496 90.9022 169.787L90.9116 170.477C90.9134 170.607 90.8313 170.724 90.7083 170.765L90.0544 170.988C89.7793 171.081 89.7846 171.472 90.0622 171.558L90.7218 171.763C90.846 171.801 90.9312 171.915 90.933 172.045L90.9424 172.736C90.9464 173.026 91.3199 173.142 91.4875 172.905L91.8857 172.341C91.9607 172.234 92.0955 172.189 92.2196 172.227L92.8793 172.431C93.1569 172.518 93.3824 172.198 93.2084 171.965L92.7949 171.412C92.7171 171.308 92.7151 171.166 92.7901 171.06L93.1883 170.495Z" fill="#717A7C"/>
<path d="M253.94 126.772C254.146 126.568 253.97 126.218 253.683 126.263L253 126.368C252.872 126.388 252.745 126.323 252.687 126.207L252.376 125.59C252.245 125.331 251.858 125.391 251.812 125.678L251.701 126.359C251.68 126.487 251.579 126.588 251.451 126.608L250.768 126.713C250.481 126.757 250.418 127.143 250.677 127.276L251.291 127.592C251.406 127.652 251.471 127.779 251.45 127.907L251.339 128.589C251.293 128.876 251.64 129.054 251.847 128.85L252.337 128.363C252.429 128.272 252.57 128.25 252.685 128.309L253.299 128.625C253.558 128.758 253.835 128.483 253.704 128.223L253.393 127.607C253.335 127.491 253.358 127.35 253.45 127.259L253.94 126.772Z" fill="#717A7C"/>
<path d="M234.113 27.2499C233.826 27.2943 233.763 27.6803 234.022 27.8132L234.636 28.1291C234.751 28.1885 234.815 28.3156 234.795 28.4439L234.684 29.1256C234.637 29.4124 234.985 29.5913 235.191 29.3866L235.682 28.9001C235.774 28.8086 235.915 28.7869 236.03 28.8463L236.644 29.1622C236.903 29.2951 237.18 29.0197 237.049 28.7602L236.738 28.1437C236.68 28.0277 236.702 27.8871 236.795 27.7956L237.285 27.3092C237.491 27.1044 237.315 26.7554 237.028 26.7997L236.345 26.9051C236.217 26.925 236.09 26.8599 236.032 26.7438L235.72 26.1273C235.589 25.8679 235.203 25.9276 235.156 26.2144L235.046 26.8961C235.025 27.0244 234.924 27.1247 234.796 27.1445L234.113 27.2499Z" fill="#717A7C"/>
<path d="M292.387 185.861C292.594 185.656 292.417 185.307 292.13 185.352L291.448 185.457C291.319 185.477 291.193 185.412 291.134 185.296L290.823 184.679C290.692 184.42 290.306 184.48 290.259 184.766L290.148 185.448C290.127 185.576 290.026 185.677 289.898 185.696L289.215 185.802C288.928 185.846 288.866 186.232 289.124 186.365L289.738 186.681C289.854 186.74 289.918 186.868 289.897 186.996L289.786 187.678C289.74 187.964 290.088 188.143 290.294 187.939L290.784 187.452C290.876 187.361 291.017 187.339 291.133 187.398L291.747 187.714C292.005 187.847 292.283 187.572 292.152 187.312L291.841 186.696C291.782 186.58 291.805 186.439 291.897 186.348L292.387 185.861Z" fill="#717A7C"/>
<path d="M53.2673 175.212C53.3167 175.498 53.7037 175.554 53.8321 175.294L54.1372 174.674C54.1946 174.558 54.3206 174.491 54.4492 174.51L55.1327 174.608C55.4203 174.65 55.5931 174.299 55.3848 174.097L54.8899 173.615C54.7967 173.524 54.7726 173.384 54.83 173.267L55.1351 172.648C55.2635 172.387 54.9833 172.114 54.7261 172.25L54.1151 172.572C54.0002 172.632 53.8592 172.612 53.7661 172.521L53.2712 172.04C53.0629 171.837 52.7169 172.019 52.7663 172.306L52.8836 172.986C52.9057 173.114 52.8428 173.242 52.7278 173.303L52.1168 173.624C51.8597 173.76 51.9261 174.145 52.2137 174.187L52.8972 174.286C53.0259 174.304 53.1279 174.403 53.15 174.532L53.2673 175.212Z" fill="#717A7C"/>
<path d="M206.51 218.818C206.222 218.857 206.153 219.242 206.409 219.38L207.018 219.706C207.132 219.768 207.194 219.896 207.171 220.024L207.049 220.703C206.997 220.989 207.342 221.174 207.551 220.973L208.05 220.495C208.144 220.405 208.285 220.386 208.399 220.448L209.008 220.774C209.264 220.912 209.546 220.641 209.42 220.379L209.12 219.757C209.063 219.64 209.088 219.5 209.182 219.41L209.681 218.933C209.891 218.732 209.72 218.379 209.433 218.419L208.748 218.512C208.62 218.53 208.494 218.463 208.438 218.345L208.137 217.724C208.011 217.462 207.623 217.515 207.572 217.801L207.449 218.481C207.426 218.608 207.323 218.707 207.195 218.725L206.51 218.818Z" fill="#717A7C"/>
<path d="M111.08 263.18C110.958 262.916 110.569 262.962 110.513 263.247L110.379 263.924C110.353 264.052 110.249 264.149 110.12 264.164L109.434 264.245C109.145 264.28 109.069 264.663 109.323 264.805L109.926 265.142C110.039 265.206 110.099 265.335 110.073 265.463L109.939 266.14C109.883 266.425 110.224 266.616 110.437 266.418L110.944 265.949C111.039 265.861 111.181 265.844 111.294 265.908L111.897 266.245C112.151 266.387 112.438 266.121 112.316 265.857L112.026 265.23C111.972 265.112 112 264.973 112.095 264.884L112.602 264.415C112.815 264.218 112.651 263.863 112.363 263.897L111.677 263.979C111.548 263.994 111.424 263.925 111.369 263.807L111.08 263.18Z" fill="#717A7C"/>
<path d="M175.753 14.8178C175.471 14.887 175.442 15.277 175.711 15.3869L176.351 15.648C176.471 15.6972 176.546 15.8182 176.536 15.9478L176.485 16.6365C176.464 16.9263 176.826 17.0742 177.014 16.8523L177.46 16.325C177.544 16.2257 177.682 16.1918 177.802 16.241L178.441 16.5021C178.711 16.612 178.963 16.3135 178.81 16.0664L178.446 15.4794C178.378 15.3689 178.388 15.2269 178.472 15.1276L178.918 14.6003C179.106 14.3784 178.9 14.046 178.618 14.1152L177.947 14.2797C177.821 14.3107 177.689 14.2569 177.62 14.1464L177.257 13.5593C177.104 13.3123 176.724 13.4054 176.702 13.6953L176.652 14.384C176.642 14.5136 176.55 14.6223 176.424 14.6533L175.753 14.8178Z" fill="#717A7C"/>
<path d="M39.9561 90.0638C40.1048 90.3135 40.4862 90.227 40.5126 89.9376L40.5754 89.2498C40.5872 89.1204 40.6811 89.0133 40.8078 88.9846L41.4813 88.8318C41.7647 88.7675 41.8003 88.3781 41.5332 88.2635L40.8986 87.9913C40.7791 87.94 40.7062 87.8177 40.7181 87.6883L40.7809 87.0005C40.8073 86.7111 40.448 86.557 40.2565 86.7756L39.8014 87.295C39.7158 87.3928 39.5769 87.4243 39.4575 87.373L38.8228 87.1008C38.5558 86.9862 38.2981 87.2803 38.4468 87.53L38.8002 88.1233C38.8667 88.235 38.8538 88.3767 38.7681 88.4745L38.3131 88.994C38.1216 89.2126 38.3217 89.5485 38.6051 89.4842L39.2786 89.3314C39.4053 89.3027 39.5362 89.3588 39.6027 89.4705L39.9561 90.0638Z" fill="#717A7C"/>
<path d="M247.481 51.1397C247.259 50.952 246.926 51.158 246.996 51.4402L247.16 52.1109C247.191 52.2371 247.137 52.369 247.027 52.4374L246.44 52.8011C246.193 52.9542 246.286 53.3339 246.576 53.3553L247.264 53.4061C247.394 53.4157 247.503 53.5076 247.534 53.6339L247.698 54.3046C247.767 54.5868 248.157 54.6156 248.267 54.3466L248.528 53.7072C248.577 53.5869 248.698 53.5119 248.828 53.5215L249.517 53.5723C249.807 53.5937 249.955 53.2317 249.733 53.0441L249.205 52.5981C249.106 52.5142 249.072 52.3759 249.121 52.2556L249.382 51.6163C249.492 51.3473 249.194 51.0948 248.947 51.2478L248.36 51.6115C248.249 51.68 248.107 51.6695 248.008 51.5856L247.481 51.1397Z" fill="#717A7C"/>
<path d="M112.09 277.18C112.104 277.47 112.482 277.573 112.641 277.33L113.019 276.752C113.09 276.643 113.224 276.593 113.349 276.627L114.015 276.808C114.296 276.884 114.51 276.557 114.328 276.331L113.895 275.792C113.814 275.691 113.807 275.549 113.878 275.44L114.257 274.862C114.416 274.619 114.171 274.314 113.899 274.418L113.254 274.663C113.132 274.709 112.995 274.671 112.913 274.57L112.481 274.032C112.299 273.805 111.933 273.944 111.947 274.234L111.981 274.924C111.987 275.054 111.909 275.173 111.787 275.219L111.142 275.464C110.87 275.567 110.889 275.958 111.17 276.034L111.836 276.215C111.961 276.249 112.05 276.36 112.057 276.49L112.09 277.18Z" fill="#717A7C"/>
<path d="M26.4888 55.3138C26.7774 55.2795 26.8534 54.896 26.5998 54.7541L25.9971 54.417C25.8836 54.3535 25.824 54.2243 25.8493 54.0968L25.9836 53.4194C26.0402 53.1343 25.6989 52.9435 25.4856 53.1408L24.9787 53.6099C24.8833 53.6982 24.742 53.715 24.6285 53.6515L24.0258 53.3144C23.7722 53.1725 23.4852 53.4381 23.607 53.702L23.8964 54.329C23.9509 54.447 23.9232 54.5866 23.8278 54.6749L23.321 55.1439C23.1077 55.3413 23.2716 55.6964 23.5601 55.662L24.2459 55.5805C24.375 55.5652 24.4992 55.6347 24.5537 55.7527L24.8431 56.3797C24.965 56.6435 25.3532 56.5974 25.4098 56.3123L25.5442 55.6349C25.5694 55.5074 25.6739 55.4107 25.803 55.3954L26.4888 55.3138Z" fill="#717A7C"/>
<path d="M115.103 4.80084C115.298 4.58562 115.104 4.24623 114.819 4.30557L114.143 4.44656C114.016 4.47309 113.886 4.41468 113.822 4.30188L113.479 3.70249C113.334 3.45025 112.952 3.53009 112.92 3.81899L112.845 4.50552C112.831 4.63472 112.736 4.74016 112.608 4.7667L111.932 4.90769C111.648 4.96702 111.605 5.35575 111.87 5.47497L112.5 5.75827C112.619 5.81159 112.69 5.93516 112.675 6.06437L112.601 6.75089C112.569 7.0398 112.926 7.20021 113.121 6.98499L113.585 6.47355C113.672 6.3773 113.812 6.34823 113.93 6.40155L114.56 6.68485C114.825 6.80408 115.088 6.51449 114.944 6.26226L114.601 5.66287C114.536 5.55007 114.551 5.40852 114.639 5.31227L115.103 4.80084Z" fill="#717A7C"/>
<path d="M172.577 235.974C172.682 235.703 172.379 235.456 172.135 235.613L171.554 235.987C171.445 236.057 171.303 236.049 171.202 235.967L170.667 235.53C170.442 235.347 170.113 235.558 170.187 235.839L170.363 236.507C170.396 236.633 170.345 236.765 170.236 236.836L169.655 237.21C169.411 237.367 169.51 237.745 169.801 237.761L170.49 237.8C170.62 237.808 170.73 237.898 170.763 238.023L170.94 238.691C171.014 238.972 171.404 238.994 171.509 238.723L171.759 238.079C171.806 237.958 171.926 237.881 172.056 237.888L172.745 237.927C173.035 237.943 173.177 237.579 172.952 237.395L172.417 236.959C172.316 236.876 172.28 236.739 172.327 236.618L172.577 235.974Z" fill="#717A7C"/>
<path d="M203.606 101.523C203.449 101.278 203.071 101.378 203.054 101.668L203.015 102.358C203.008 102.488 202.918 102.598 202.792 102.631L202.125 102.807C201.844 102.881 201.822 103.272 202.093 103.377L202.736 103.627C202.858 103.674 202.935 103.794 202.927 103.923L202.889 104.613C202.872 104.903 203.237 105.045 203.42 104.819L203.857 104.284C203.939 104.184 204.077 104.147 204.198 104.194L204.842 104.444C205.113 104.55 205.36 104.247 205.203 104.002L204.829 103.422C204.758 103.312 204.766 103.17 204.849 103.07L205.285 102.535C205.469 102.309 205.257 101.981 204.976 102.055L204.309 102.231C204.183 102.264 204.05 102.213 203.98 102.103L203.606 101.523Z" fill="#717A7C"/>
<path d="M111.567 7.60458C111.632 7.88799 112.021 7.92357 112.136 7.65649L112.408 7.02184C112.459 6.9024 112.581 6.82953 112.711 6.84136L113.399 6.90418C113.688 6.93062 113.842 6.57127 113.624 6.37977L113.104 5.92471C113.006 5.83906 112.975 5.70021 113.026 5.58077L113.298 4.94612C113.413 4.67904 113.119 4.42138 112.869 4.5701L112.276 4.92351C112.164 4.99002 112.022 4.97707 111.925 4.89143L111.405 4.43637C111.187 4.24486 110.851 4.44497 110.915 4.72839L111.068 5.40187C111.096 5.52862 111.04 5.65946 110.929 5.72597L110.335 6.07938C110.086 6.22811 110.172 6.60944 110.462 6.63588L111.149 6.6987C111.279 6.71053 111.386 6.80435 111.415 6.9311L111.567 7.60458Z" fill="#717A7C"/>
<path d="M29.9116 253.88C29.6788 254.054 29.8047 254.424 30.0953 254.42L30.7858 254.411C30.9158 254.409 31.0321 254.491 31.0739 254.614L31.2963 255.268C31.3898 255.543 31.7808 255.538 31.8668 255.26L32.0713 254.601C32.1098 254.476 32.2238 254.391 32.3538 254.389L33.0443 254.38C33.3349 254.376 33.4506 254.003 33.2132 253.835L32.649 253.437C32.5429 253.362 32.497 253.227 32.5355 253.103L32.7399 252.443C32.826 252.166 32.5065 251.94 32.2738 252.114L31.7206 252.528C31.6165 252.605 31.4742 252.607 31.368 252.532L30.8038 252.134C30.5664 251.966 30.2532 252.201 30.3468 252.476L30.5691 253.13C30.6109 253.253 30.5688 253.389 30.4647 253.466L29.9116 253.88Z" fill="#717A7C"/>
<path d="M107.591 290.08C107.697 289.809 107.394 289.562 107.149 289.719L106.569 290.093C106.459 290.163 106.317 290.155 106.217 290.073L105.682 289.636C105.456 289.453 105.128 289.664 105.202 289.945L105.378 290.613C105.411 290.739 105.36 290.871 105.25 290.942L104.67 291.316C104.425 291.473 104.525 291.851 104.815 291.867L105.505 291.906C105.635 291.914 105.745 292.004 105.778 292.129L105.954 292.797C106.028 293.078 106.419 293.1 106.524 292.829L106.774 292.185C106.821 292.064 106.941 291.987 107.07 291.994L107.76 292.033C108.05 292.049 108.192 291.685 107.966 291.501L107.431 291.064C107.331 290.982 107.294 290.845 107.341 290.723L107.591 290.08Z" fill="#717A7C"/>
<path d="M27.914 167.105C28.1884 167.201 28.4249 166.89 28.2591 166.651L27.8652 166.084C27.7911 165.977 27.7941 165.835 27.8727 165.731L28.2904 165.181C28.4662 164.95 28.2432 164.629 27.9649 164.713L27.3037 164.912C27.1793 164.95 27.0449 164.903 26.9707 164.796L26.5768 164.229C26.411 163.99 26.0366 164.103 26.0305 164.393L26.0158 165.084C26.013 165.214 25.9269 165.327 25.8024 165.365L25.1412 165.564C24.863 165.648 24.8547 166.039 25.1291 166.135L25.7812 166.362C25.9039 166.405 25.9851 166.522 25.9824 166.652L25.9677 167.342C25.9615 167.633 26.3307 167.761 26.5065 167.53L26.9242 166.98C27.0028 166.876 27.1392 166.835 27.2619 166.878L27.914 167.105Z" fill="#717A7C"/>
<path d="M240.157 177.196C240.433 177.286 240.664 176.971 240.494 176.735L240.09 176.175C240.014 176.069 240.015 175.927 240.091 175.822L240.5 175.265C240.671 175.031 240.443 174.713 240.166 174.802L239.508 175.013C239.385 175.053 239.249 175.008 239.173 174.903L238.77 174.343C238.6 174.107 238.227 174.226 238.226 174.517L238.224 175.207C238.223 175.337 238.139 175.452 238.015 175.492L237.358 175.703C237.081 175.792 237.079 176.183 237.355 176.273L238.011 176.489C238.135 176.53 238.218 176.645 238.218 176.775L238.215 177.466C238.214 177.757 238.585 177.879 238.757 177.644L239.165 177.087C239.242 176.982 239.377 176.939 239.501 176.98L240.157 177.196Z" fill="#717A7C"/>
<path d="M208.192 108.773C207.902 108.757 207.76 109.121 207.985 109.305L208.52 109.742C208.621 109.824 208.657 109.962 208.61 110.083L208.36 110.726C208.255 110.997 208.558 111.245 208.802 111.087L209.383 110.713C209.492 110.643 209.635 110.651 209.735 110.733L210.27 111.17C210.495 111.354 210.824 111.142 210.75 110.861L210.574 110.193C210.541 110.067 210.592 109.935 210.701 109.864L211.282 109.49C211.526 109.333 211.427 108.955 211.136 108.939L210.447 108.9C210.317 108.893 210.207 108.803 210.174 108.677L209.998 108.009C209.923 107.728 209.533 107.706 209.428 107.977L209.178 108.621C209.131 108.742 209.011 108.819 208.881 108.812L208.192 108.773Z" fill="#717A7C"/>
<path d="M19.5236 67.9254C19.2357 67.9648 19.1663 68.3496 19.4224 68.487L21.2976 69.4933C21.4121 69.5548 21.4741 69.683 21.451 69.8109L21.0734 71.9053C21.0219 72.1913 21.3664 72.3762 21.5762 72.1751L23.1128 70.7027C23.2066 70.6127 23.3477 70.5935 23.4622 70.6549L25.3374 71.6612C25.5935 71.7986 25.8758 71.5281 25.7494 71.2664L24.8238 69.3501C24.7673 69.233 24.7925 69.0929 24.8864 69.003L26.4229 67.5305C26.6327 67.3294 26.4627 66.9773 26.1747 67.0167L24.0662 67.3048C23.9374 67.3224 23.8119 67.255 23.7554 67.138L22.8298 65.2217C22.7034 64.96 22.316 65.0129 22.2644 65.2989L21.8868 67.3933C21.8638 67.5212 21.761 67.6197 21.6322 67.6373L19.5236 67.9254Z" fill="#717A7C"/>
<path d="M50.1345 121.866C50.383 122.017 50.6791 121.761 50.5666 121.493L49.7426 119.531C49.6922 119.411 49.7248 119.273 49.8232 119.188L51.4347 117.798C51.6548 117.608 51.5033 117.248 51.2137 117.272L49.093 117.449C48.9635 117.46 48.8417 117.386 48.7914 117.266L47.9673 115.304C47.8548 115.036 47.4652 115.069 47.3987 115.352L46.912 117.423C46.8823 117.55 46.7745 117.643 46.645 117.654L44.5242 117.831C44.2346 117.855 44.1452 118.236 44.3937 118.387L46.2137 119.49C46.3248 119.557 46.38 119.688 46.3502 119.815L45.8636 121.887C45.7971 122.17 46.1315 122.372 46.3516 122.182L47.9631 120.792C48.0615 120.708 48.2034 120.696 48.3145 120.763L50.1345 121.866Z" fill="#717A7C"/>
<path d="M217.308 48.0001C217.019 48.0344 216.943 48.4179 217.197 48.5598L219.054 49.5987C219.168 49.6621 219.227 49.7914 219.202 49.9189L218.788 52.0064C218.731 52.2914 219.073 52.4823 219.286 52.2849L220.848 50.8395C220.943 50.7512 221.085 50.7344 221.198 50.7979L223.056 51.8367C223.309 51.9786 223.596 51.713 223.474 51.4492L222.582 49.517C222.528 49.399 222.556 49.2593 222.651 49.171L224.213 47.7256C224.426 47.5282 224.262 47.1732 223.974 47.2075L221.861 47.4588C221.731 47.4741 221.607 47.4046 221.553 47.2866L220.661 45.3544C220.539 45.0905 220.151 45.1367 220.094 45.4218L219.68 47.5093C219.655 47.6367 219.55 47.7335 219.421 47.7488L217.308 48.0001Z" fill="#717A7C"/>
<path d="M210.747 54.1754C210.459 54.2097 210.383 54.5932 210.636 54.7351L212.494 55.774C212.607 55.8374 212.667 55.9667 212.642 56.0942L212.227 58.1817C212.171 58.4667 212.512 58.6576 212.725 58.4602L214.287 57.0148C214.383 56.9265 214.524 56.9097 214.638 56.9732L216.495 58.012C216.749 58.1539 217.036 57.8883 216.914 57.6245L216.022 55.6923C215.967 55.5743 215.995 55.4346 216.09 55.3463L217.652 53.9009C217.866 53.7035 217.702 53.3485 217.413 53.3828L215.3 53.6341C215.171 53.6494 215.047 53.5799 214.992 53.4619L214.1 51.5297C213.978 51.2658 213.59 51.312 213.534 51.5971L213.119 53.6846C213.094 53.812 212.99 53.9087 212.861 53.9241L210.747 54.1754Z" fill="#717A7C"/>
<path d="M204.784 122.873C204.951 122.636 204.717 122.323 204.442 122.416L203.643 122.688C203.52 122.73 203.384 122.688 203.307 122.584L202.801 121.908C202.627 121.675 202.257 121.801 202.261 122.092L202.273 122.935C202.274 123.065 202.192 123.181 202.069 123.223L201.27 123.495C200.995 123.589 201.001 123.979 201.278 124.066L202.084 124.315C202.208 124.354 202.294 124.468 202.295 124.598L202.307 125.441C202.311 125.732 202.684 125.848 202.852 125.61L203.338 124.921C203.413 124.815 203.548 124.769 203.672 124.808L204.478 125.057C204.756 125.143 204.981 124.824 204.807 124.591L204.302 123.915C204.224 123.811 204.222 123.669 204.297 123.563L204.784 122.873Z" fill="#717A7C"/>
<path d="M44.2263 179.308C44.4748 179.458 44.7709 179.203 44.6584 178.935L43.8343 176.973C43.784 176.853 43.8166 176.714 43.915 176.629L45.5265 175.239C45.7466 175.049 45.5951 174.689 45.3055 174.713L43.1848 174.891C43.0553 174.901 42.9335 174.828 42.8832 174.708L42.0591 172.746C41.9466 172.478 41.557 172.51 41.4905 172.793L41.0038 174.865C40.9741 174.991 40.8663 175.084 40.7368 175.095L38.616 175.273C38.3264 175.297 38.237 175.677 38.4855 175.828L40.3055 176.931C40.4166 176.999 40.4718 177.13 40.442 177.256L39.9554 179.328C39.8889 179.611 40.2233 179.814 40.4434 179.624L42.0549 178.234C42.1533 178.149 42.2951 178.137 42.4063 178.204L44.2263 179.308Z" fill="#717A7C"/>
<path d="M21.0974 138.158C21.0581 137.87 20.6732 137.801 20.5358 138.057L20.1369 138.8C20.0754 138.915 19.9472 138.976 19.8193 138.953L18.989 138.804C18.703 138.752 18.5181 139.097 18.7192 139.307L19.3029 139.916C19.3929 140.01 19.4121 140.151 19.3507 140.265L18.9517 141.009C18.8143 141.265 19.0849 141.547 19.3466 141.421L20.1063 141.054C20.2233 140.997 20.3634 141.022 20.4534 141.116L21.0371 141.725C21.2382 141.935 21.5903 141.765 21.5509 141.477L21.4367 140.641C21.4191 140.512 21.4864 140.387 21.6035 140.33L22.3632 139.963C22.6249 139.837 22.5719 139.45 22.2859 139.398L21.4556 139.248C21.3277 139.225 21.2292 139.123 21.2116 138.994L21.0974 138.158Z" fill="#717A7C"/>
<path d="M131.135 281.922C131.131 281.631 130.758 281.516 130.59 281.753L129.363 283.492C129.288 283.598 129.153 283.644 129.029 283.605L126.996 282.975C126.719 282.889 126.493 283.208 126.667 283.441L127.941 285.146C128.019 285.25 128.021 285.392 127.946 285.498L126.719 287.237C126.551 287.474 126.785 287.788 127.06 287.694L129.075 287.009C129.198 286.967 129.334 287.009 129.412 287.113L130.686 288.818C130.86 289.051 131.231 288.925 131.227 288.634L131.198 286.506C131.196 286.376 131.278 286.26 131.401 286.218L133.416 285.533C133.691 285.439 133.686 285.048 133.408 284.962L131.375 284.332C131.251 284.294 131.166 284.18 131.164 284.05L131.135 281.922Z" fill="#717A7C"/>
<path d="M289.687 80.0346C289.621 80.3175 289.955 80.5202 290.175 80.3303L290.814 79.7793C290.912 79.6944 291.054 79.6825 291.166 79.7499L291.887 80.1872C292.136 80.3378 292.432 80.0824 292.319 79.8145L291.992 79.0366C291.942 78.9168 291.975 78.7782 292.073 78.6933L292.712 78.1422C292.932 77.9524 292.781 77.5919 292.491 77.6161L291.65 77.6864C291.521 77.6972 291.399 77.6234 291.349 77.5036L291.022 76.7257C290.909 76.4578 290.52 76.4904 290.453 76.7733L290.26 77.5946C290.231 77.7211 290.123 77.8141 289.993 77.825L289.153 77.8953C288.863 77.9195 288.774 78.3001 289.022 78.4508L289.744 78.8881C289.855 78.9554 289.91 79.0867 289.88 79.2132L289.687 80.0346Z" fill="#717A7C"/>
<path d="M170.597 157.226C170.398 157.438 170.586 157.781 170.871 157.726L172.962 157.328C173.09 157.304 173.219 157.365 173.281 157.478L174.306 159.344C174.446 159.598 174.83 159.525 174.866 159.237L175.134 157.126C175.15 156.997 175.248 156.893 175.375 156.869L177.466 156.471C177.751 156.416 177.8 156.028 177.538 155.905L175.612 154.998C175.495 154.942 175.426 154.818 175.442 154.689L175.71 152.577C175.746 152.289 175.393 152.122 175.194 152.334L173.736 153.885C173.647 153.98 173.507 154.006 173.39 153.951L171.465 153.044C171.202 152.92 170.934 153.205 171.074 153.46L172.098 155.325C172.161 155.439 172.143 155.581 172.054 155.675L170.597 157.226Z" fill="#717A7C"/>
<path d="M121.128 264.342C121.414 264.288 121.463 263.9 121.2 263.776L119.275 262.869C119.157 262.814 119.089 262.689 119.105 262.56L119.372 260.449C119.409 260.16 119.055 259.994 118.856 260.205L117.399 261.756C117.31 261.851 117.17 261.878 117.052 261.822L115.127 260.916C114.864 260.792 114.596 261.077 114.736 261.331L115.761 263.197C115.823 263.311 115.805 263.452 115.716 263.547L114.259 265.097C114.06 265.309 114.248 265.652 114.534 265.598L116.624 265.199C116.752 265.175 116.881 265.236 116.943 265.35L117.968 267.215C118.108 267.47 118.492 267.397 118.529 267.108L118.796 264.997C118.812 264.868 118.91 264.764 119.038 264.74L121.128 264.342Z" fill="#717A7C"/>
<path d="M117.531 118.173C117.764 117.999 117.638 117.628 117.348 117.632L115.22 117.661C115.09 117.663 114.974 117.581 114.932 117.458L114.247 115.443C114.153 115.168 113.762 115.173 113.676 115.451L113.046 117.484C113.007 117.608 112.893 117.693 112.763 117.695L110.635 117.724C110.345 117.728 110.229 118.101 110.467 118.269L112.205 119.496C112.311 119.571 112.357 119.706 112.319 119.83L111.689 121.863C111.603 122.14 111.922 122.366 112.155 122.192L113.859 120.918C113.964 120.84 114.106 120.838 114.212 120.913L115.951 122.14C116.188 122.308 116.501 122.074 116.408 121.799L115.723 119.784C115.681 119.661 115.723 119.525 115.827 119.447L117.531 118.173Z" fill="#717A7C"/>
<path d="M38.2761 46.7501C38.0082 46.8627 38.0407 47.2523 38.3237 47.3188L40.3954 47.8055C40.522 47.8352 40.615 47.943 40.6258 48.0725L40.8031 50.1933C40.8274 50.4829 41.208 50.5723 41.3587 50.3238L42.4617 48.5038C42.5291 48.3926 42.6604 48.3375 42.7869 48.3672L44.8587 48.8539C45.1416 48.9204 45.3443 48.586 45.1544 48.3659L43.7644 46.7544C43.6795 46.656 43.6676 46.5141 43.735 46.403L44.8381 44.583C44.9887 44.3345 44.7333 44.0384 44.4654 44.1509L42.5032 44.9749C42.3834 45.0252 42.2448 44.9927 42.1599 44.8943L40.7698 43.2828C40.58 43.0627 40.2195 43.2141 40.2437 43.5037L40.4211 45.6245C40.4319 45.754 40.3581 45.8758 40.2383 45.9261L38.2761 46.7501Z" fill="#717A7C"/>
<path d="M140.06 226.527C139.801 226.394 139.524 226.669 139.654 226.929L140.613 228.829C140.672 228.945 140.649 229.085 140.557 229.177L139.046 230.676C138.84 230.881 139.016 231.23 139.303 231.185L141.407 230.861C141.535 230.841 141.662 230.906 141.72 231.022L142.679 232.922C142.81 233.181 143.197 233.121 143.243 232.835L143.584 230.734C143.605 230.606 143.706 230.505 143.834 230.486L145.938 230.161C146.225 230.116 146.287 229.73 146.029 229.597L144.137 228.624C144.021 228.565 143.957 228.437 143.978 228.309L144.319 226.208C144.365 225.922 144.017 225.743 143.811 225.947L142.301 227.446C142.208 227.538 142.068 227.56 141.952 227.5L140.06 226.527Z" fill="#717A7C"/>
<path d="M250.073 228.606C249.874 228.818 250.062 229.16 250.348 229.106L252.439 228.708C252.566 228.684 252.695 228.744 252.758 228.858L253.782 230.724C253.922 230.978 254.306 230.905 254.343 230.617L254.61 228.506C254.627 228.377 254.724 228.273 254.852 228.249L256.942 227.851C257.228 227.796 257.277 227.408 257.014 227.284L255.089 226.378C254.971 226.322 254.903 226.197 254.919 226.069L255.186 223.957C255.223 223.669 254.869 223.502 254.67 223.714L253.213 225.265C253.124 225.36 252.984 225.386 252.866 225.331L250.941 224.424C250.678 224.3 250.41 224.585 250.55 224.84L251.575 226.705C251.637 226.819 251.62 226.96 251.531 227.055L250.073 228.606Z" fill="#717A7C"/>
<path d="M77.7529 132.235C77.9327 132.007 77.7153 131.682 77.4356 131.761L75.3876 132.339C75.2626 132.375 75.129 132.325 75.0567 132.217L73.8734 130.449C73.7118 130.207 73.3355 130.313 73.3243 130.604L73.2419 132.73C73.2368 132.86 73.1488 132.972 73.0237 133.007L70.9757 133.586C70.6961 133.665 70.6809 134.056 70.9536 134.156L72.9506 134.892C73.0726 134.937 73.1518 135.055 73.1467 135.185L73.0643 137.312C73.0531 137.602 73.42 137.737 73.5998 137.509L74.9164 135.837C74.9968 135.735 75.1338 135.696 75.2558 135.741L77.2528 136.476C77.5255 136.577 77.7675 136.27 77.6059 136.028L76.4226 134.259C76.3503 134.151 76.3558 134.009 76.4362 133.907L77.7529 132.235Z" fill="#717A7C"/>
<path d="M29.182 269.391C28.901 269.465 28.8791 269.855 29.15 269.961L31.1338 270.731C31.255 270.778 31.3321 270.898 31.3248 271.027L31.2053 273.152C31.1889 273.442 31.5535 273.584 31.7372 273.359L33.0828 271.71C33.165 271.609 33.3027 271.573 33.4238 271.62L35.4077 272.39C35.6786 272.496 35.9259 272.193 35.7685 271.948L34.6163 270.159C34.5459 270.05 34.5539 269.908 34.6361 269.807L35.9817 268.158C36.1655 267.933 35.9538 267.604 35.6728 267.678L33.615 268.221C33.4894 268.254 33.3566 268.203 33.2863 268.094L32.134 266.304C31.9767 266.06 31.5986 266.16 31.5823 266.45L31.4628 268.575C31.4555 268.705 31.3654 268.815 31.2398 268.848L29.182 269.391Z" fill="#717A7C"/>
<path d="M128.009 230.556C128.145 230.813 128.53 230.747 128.571 230.459L128.876 228.353C128.894 228.224 128.994 228.122 129.122 228.1L131.219 227.739C131.505 227.689 131.561 227.302 131.301 227.174L129.391 226.234C129.275 226.176 129.208 226.05 129.227 225.922L129.531 223.815C129.573 223.528 129.222 223.355 129.019 223.563L127.535 225.088C127.444 225.181 127.304 225.206 127.188 225.148L125.278 224.208C125.018 224.08 124.745 224.36 124.88 224.617L125.872 226.5C125.933 226.615 125.912 226.756 125.822 226.849L124.338 228.374C124.135 228.582 124.317 228.928 124.604 228.879L126.701 228.517C126.829 228.495 126.957 228.558 127.017 228.673L128.009 230.556Z" fill="#717A7C"/>
<path d="M98.3591 29.1762L163.941 92.0067C164.872 92.8988 166.269 93.096 167.411 92.4966L240.211 54.2766C241.911 53.3845 243.769 55.1659 242.949 56.9015L203.917 139.558C203.369 140.719 203.621 142.101 204.543 142.994L261.175 197.814C262.558 199.152 261.438 201.479 259.53 201.235L170.101 189.769C168.841 189.608 167.617 190.257 167.043 191.389L131.661 261.247C130.797 262.951 128.264 262.591 127.911 260.713L111.9 175.627C111.661 174.357 110.636 173.383 109.355 173.209L28.9865 162.312C27.0778 162.053 26.6022 159.51 28.2883 158.579L107.139 115.028C108.254 114.412 108.858 113.159 108.647 111.903L95.0033 30.9527C94.6832 29.0538 96.9685 27.8439 98.3591 29.1762Z" fill="url(#paint1_radial_26_398)"/>
<mask id="mask0_26_398" style="mask-type:alpha" maskUnits="userSpaceOnUse" x="27" y="28" width="235" height="235">
<path d="M98.3591 29.1762L163.941 92.0067C164.872 92.8988 166.269 93.096 167.411 92.4966L240.211 54.2766C241.911 53.3845 243.769 55.1659 242.949 56.9015L203.917 139.558C203.369 140.719 203.621 142.101 204.543 142.994L261.175 197.814C262.558 199.152 261.438 201.479 259.53 201.235L170.101 189.769C168.841 189.608 167.617 190.257 167.043 191.389L131.661 261.247C130.797 262.951 128.264 262.591 127.911 260.713L111.9 175.627C111.661 174.357 110.636 173.383 109.355 173.209L28.9865 162.312C27.0778 162.053 26.6022 159.51 28.2883 158.579L107.139 115.028C108.254 114.412 108.858 113.159 108.647 111.903L95.0033 30.9527C94.6832 29.0538 96.9685 27.8439 98.3591 29.1762Z" fill="#D9D9D9"/>
</mask>
<g mask="url(#mask0_26_398)">
<path d="M108 94C113.2 121.6 99.5 140.833 92 147C137.2 139.4 127.5 86.5 117 61L141.5 70.5L151.5 73L92 17C95.1667 31.1667 102.8 66.4 108 94Z" fill="white"/>
<path d="M183.109 84.7299C158.077 97.4667 135.772 89.7149 127.748 84.247C147.728 125.498 195.78 101.341 217.308 84.107L215.066 110.289L215.473 120.588L252.524 47.7634C239.815 54.7786 208.14 71.9931 183.109 84.7299Z" fill="white"/>
<path d="M213.16 153.047C192.918 133.578 192.924 109.964 195.458 100.591C163.043 132.996 201.624 170.466 224.967 185.15L199.498 191.619L189.902 195.382L270.851 206.496C260.055 196.792 233.403 172.516 213.16 153.047Z" fill="white"/>
<path d="M158.165 205.513C170.682 180.371 193.215 173.31 202.917 172.921C162.295 151.692 138.091 199.72 131.067 226.387L117.271 204.023L110.808 195.993L124.433 276.557C130.461 263.351 145.647 230.655 158.165 205.513Z" fill="white"/>
<path d="M93.159 170.28C121.008 173.917 135.03 192.917 138.56 201.962C145.387 156.639 92.092 149.415 64.5914 151.468L81.2364 131.135L86.721 122.407L15 161.552C29.4492 162.946 65.3099 166.643 93.159 170.28Z" fill="white"/>
</g>
<path d="M168.5 143.5L181.5 113.5L159.5 127.5L134.5 104.5L140 131L113 148L138.5 150.5L146 184L155.5 157L188 162L168.5 143.5Z" fill="white"/>
</g>
<defs>
<linearGradient id="paint0_linear_26_398" x1="144.5" y1="0" x2="144.5" y2="291" gradientUnits="userSpaceOnUse">
<stop stop-color="#0E1B1F"/>
<stop offset="1" stop-color="#354952"/>
</linearGradient>
<radialGradient id="paint1_radial_26_398" cx="0" cy="0" r="1" gradientUnits="userSpaceOnUse" gradientTransform="translate(144.25 145.75) rotate(90) scale(120.75 121.25)">
<stop stop-color="#3F4E53"/>
<stop offset="0.78125" stop-color="#DAE5E9"/>
</radialGradient>
<clipPath id="clip0_26_398">
<rect width="289" height="291" fill="white"/>
</clipPath>
</defs>
</svg>
